<svg id="Layer_1" data-name="Layer 1" xmlns="http://www.w3.org/2000/svg" width="490.454" height="426.673" viewBox="0 0 490.454 426.673">
  <path id="Path_1224" data-name="Path 1224" d="M17.4,294.852l-.757.252-.144.506H16.4l-.252,1.261-2.271,2.777-.088.155-.165.1-.026.235-.2.358-.022-.089-.5,1.01.252,1.264.217.144.036.108.168.028.336.224h4.037l1.009,1.767,1.514.758h1.514l.536-.358,3-.4.5-.252.5-.421.5-.337L27,303.85l.495-.414,1.009-2.523,1.514-.758,1.261-1.01h1.514l2.523.755v.506l-.5,1.516.712.118.045.134h.757l.757-1.01.046-.139.963-1.377,1.009.252.5.506,1.261.5.5,1.01.5,2.525-.757.252-.252,1.264H39.857l-.5.5.252,1.01,2.019.254,1.009,1.261.5.252.252.252.14-.054.112.054.289-.217.721-.287,1.009-.254,1.514,2.525,1.514,1.767,2.271,1.767h1.514l4.794-.252,2.271-.758,3.28-1.01.08-.562.172.056.21-1.261h1.3l1.009,1.261h3.532l2.523-1.01,1.009.506h1.514l1.514.252h2.271l4.793-.758h2.019l1.766-1.01L88.55,310h1.009l1.009-.252,1.009-.758,2.775-1.516,3.028-.5,2.523-1.261h1.514l1.261.5,1.766-.252,1.766-.252,1.009,1.01h3.532l-.252-.506-1.261-.5-.757-.758h1.009l4.541-1.264,3.028-.755,1.514.252,1.009,1.261,1.009.252v.758h-.5l-.252.127-.757.127-.757.252-.757.252-4.289,1.01-.757.758.252.5,2.775-.252h2.019l-.252.252-2.523,1.264-1.009,1.01.252,1.513-3.028.254-1.261.755-.5,1.01h.757l.757-.252,2.691-.84,2.355-.673,1.766-1.264,2.271.254.5-.506,1.784-.974,1.767-.833,3.26-1.224,4.541-1.513,2.019-.607.841-.235,2.691-.673v-.08l1.514-.424v.5h-.5l-4.037,1.767-7.317,2.777-4.289,1.767-2.523,1.01-1.261,1.516L116.3,314.8l-4.541,1.261-1.514.758.5.758.225-.028.028.028.421-.085,3.364-.421,2.523-.5L121.1,314.8l3.028-.758,1.766-.758,1.009.45v.056l1.261.5-1.009.758-1.009.758-3.028,1.513-2.019,1.264-.757,1.261.252,1.261h-2.775l-.433.216-.324.038-1.261.758-.036.108-.217.144-1.766.252-2.523,1.516-2.523.758-.5,1.01-1.261.252v.033l-.784.179-.478.04-3.028.758-1.766.758-5.8,2.019L91.324,331.2l-2.019,1.01-3.28,1.01-.712.268-.045-.014-3.28,1.261-.831.485-.178.021-2.019,1.261v.758h1.261l2.271-.506V336.7l.757-.191,2.523-.5.673-.254h.336l1.009-.5,2.523-.506,2.019-.252,2.523-1.516,1.345-.252h.673l2.019-.5,2.019-1.264,2.775-.5,1.514-.506,2.1-1.052.168.042,1.766-1.01,3.028-.5.841-.254h.421l1.261-.5-.757.758-2.019.755-4.541,1.767-3.784,1.01-2.271,1.01-2.523.758-.252.758v1.767l.18.271-.937.233-3.028,1.516-1.514.758-6.308,2.271L83,341.809l-.5,1.01.252,1.01,1.261.252,1.009-.252,2.271-.758,2.826-.807,1.968-.454V341.7l.5-.144,2.775-1.012,4.794-1.01-.132.659-1.382,1.615-1.766.758-1.514.756-2.523,1.01-.757,1.264-2.523-.254-.148.031-.356-.031-.217.146-.541.108-1.766,1.261-1.261,1.262-1.514.758-2.523.506-.757.252-.757.252-.466.2-2.309.814-.757.758-.252,1.767-1.766,1.01-4.115,1.5-.174.019-1.261.5-.252.758h1.261l4.037-.758,3.28-1.01,2.271-.506v.506l-1.766.758-2.523.758-.757.5.084.169-.084.082.151.052.1.2.315-.064.189.064,2.019-.506,4.289-1.513,4.793-1.767,7.569-1.768,5.55-.758h3.028l.252.758-1.766.252-4.037,1.767-5.046,1.516-4.037,2.019-4.794,2.019v1.01h3.28l1.766-.5.757-1.01,1.514-.758,5.046-1.261.631-.212,1.135-.294,4.037-1.516,3.532-1.01,3.28-1.01h1.514v.758l-2.523,1.261-1.009.506-2.523.5-1.009.506-2.019.506v.045l-.757.207-3.028,1.513-1.261,1.264-2.775.5-1.766.506-4.794,2.271-4.289,1.516-1.766.758-.252.252-1.009,1.01,1.514.252-.757.254-2.271.755-3.532.758-2.523,1.01-.757.758.757.758h3.28l1.766-.758,5.8-1.767,2.019-1.01,6.056-1.767,4.037-1.01,9.082-3.029,2.775-.506-.541.723-.721.541-2.019,1.01-2.775.5-2.271,1.01L93.6,366.8l-1.009,1.012.252,1.01H94.1l.925-.254h.084l.378-.125,1.388-.379,2.523-.506-.252.506-1.766.758-2.271,1.513-3.784.758-3.532,1.261-.442.254h-.315l-1.009.755-1.514,1.01-2.019,1.01-2.523,1.01-1.261,1.516-3.028,1.212-.5.049-1.261.506-.095.188-.158.064-2.271.506-3.28,1.01-2.271.758v.755H67.1l3.532-1.01,1.177-.252H71.9l1.135-.252H74.42l.252.252,1.261,1.261h1.261l1.261-.252,3.452-1.21,3.612-1.061h1.766l1.261.5,1.514.252-.252.758-3.532,1.264-.5,1.01.757.5h2.019l-.826.551-.184-.045-.5.5-1.009,2.022-.631.631-1.892.631-8.326,2.525L71.139,392.8l-.5,1.01h1.514l2.271-.758h2.019v.506l-1.261,1.01v1.261h-.5L70.888,397.6l-3.028.758-3.784,1.261-3.28,1.262-.252.758,2.019.758,1.514,1.262h2.271l1.766-.252.252-.252,4.037-.506v.506l-3.28,1.261-5.3,1.516L61.3,407.445l-.252,1.01,1.261.506v.5h.2l.3.758H64.58l1.009-.252,2.775-1.516,2.019-.5,2.019-.506,4.289-1.261,5.3-1.516,2.775-.252.252.506-.757.755-9.84,3.283-3.532,1.01-6.055,1.767-4.289,1.768-2.775.758-.5.252-2.019,1.01v1.513l-1.009.506v.506l1.009,1.513h1.514l2.271-.758,6.055-1.261,1.009-.506,2.523-.755v.755H67.86l-.252.758,1.261-.252,4.541-1.516,3.28-1.01,3.28-1.513,2.019-.252v.5l-.5.252-1.261,1.264-1.935.967-3.364,1.052L71.9,420.827l-2.019.755-.606.3-.151-.049-.757.5-.5,1.01,1.009.254.757-.254-.069-.024.574-.228,1.261-.252,1.514.758,3.784.252.252.252,2.221.4.807.6,1.766.758h2.271l2.019-.252,9.84-.758,7.064-.758,4.794-1.01,4.289-1.262.942-.271.067.016,9.588-2.777,7.064-1.767,10.6-2.777,13.347-3.29.025.009,4.037-1.01,2.019-.254.5.758.757-.252-.036-.035.625-.252.168.035,1.009-.506,3.028-1.01,1.261-1.01,1.261-.5.05-.052,6-1.716,6.56-1.768,5.3-1.767,7.569-2.273,6.308-2.019-.252.506-1.261.755-3.028,1.264-.925.461-.336.042-.757.506-.252,1.01h1.009l2.019-1.01,2.271-.758,9.588-2.525,4.541-.758,3.785-.5-1.577.631L211.67,398.1l-8.83,3.029-8.326,2.777-5.3,2.019-2.019.506-6.056,1.516-9.082,2.019-2.019.758-.5,1.262-2.271.252-3.028.758.252.506,3.028,1.01h1.514l2.271-.758,6.055-1.261,4.794-.758v.758l-2.775.755-4.037,1.01-2.811.758h-.216l-3.532,1.01-2.271.758-3.784,1.01-3.911,1.3-.126-.042-1.261.506-1.682,1.473-1.6.8-2.271.254-3.893,1.3-6.7,1.732-2.795.814-.737.2-.1.049-1.557.454h-.361l-.5.254-.252,1.01h4.037l1.766.758h2.271l9.083-1.516,7.317-1.516,7.064-1.765,3.784-.506,1.766-.758,4.289-1.261,2.271-.252-1.7.755-2.242.781-.092-.023-2.019.758v.758h1.766l2.523-.506,4.794-1.513,2.271-.506.5-.5,4.794-1.516,10.6-3.283,6.812-1.765,13.624-4.545,7.064-2.777,2.271-.254.252.758-3.027,1.261-6.56,2.525-10.092,3.031-4.541,1.765-19.174,6.566-2.775.5-.757.506-5.3,1.261-5.55,1.516-5.046,1.261-13.876,3.283-11.1,3.029-11.1,3.535-9.083,3.535-3.784,2.019-1.261,1.261-.252,1.768,1.009.758,1.514,1.261h.108l.648.506h1.514l7.821-1.516,17.661-3.535,14.381-3.029,6.812-1.513,8.83-2.022,14.129-3.535,7.316-2.019,7.317-2.273,6.308-1.765,8.265-2.546.061.021,4.794-1.516,8.326-2.777,8.073-2.525h1.766l.5.252,1.009-1.01,4.288-1.513.937-.289,2.6-.723,3.784-1.262,3.643-1.388,2.438-.847,3.759-1.045,1.513-1.01h2.775l.506-.254,6.056-2.523,6.307-2.273,5.3-1.767,3.784-1.262,9.082-3.031,2.775-.755-.252.5-5.046,2.273-1.01.758,1.01.252,2.019-.758,2.523-.758,3.784-1.01,2.019-.5.5-.169,1.261-.337,1.261-.5,3.027-1.01.127-.127,1.134-.379-1.261,1.261-.5,1.01,1.261.254.6-.066.664.066,2.271-.506.134-.134,1.327-.37h.052l1.765-.506,6.559-1.261,1.261-.758.254-1.01H330l-5.549.758,1.007-1.01,2.019-.506,4.542-1.261,4.036-.758,1.01-1.261,5.043-2.525.758-.758-.5-1.01H341.1l-.442.188-.567.064-.049.2-.708.3V387.5l-1.261.758-1.892.5h-.125l-1.767.506-2.269.758.158-.315,2.365-.948,2.017-1.513.254-1.767.755-.252.085-.085.419-.167.715-.254h.042l3.533-1.261.711-.268.045.016,5.3-2.022,2.775-1.261,3.533-1.261.252,1.767,1.261.252.5-.506,2.271-.5v-.506l-.756-.758-.506-1.261.758-.252,3.278-1.01,3.784-1.261,2.523-1.264,2.019-1.01,3.784-1.261,4.542-1.767.755.252-.252,1.01-2.523,1.264-.758.755h1.261l1.767-.755,5.55-2.273.252-.5-1.513.252-2.271.252.252-1.261,1.767-.254.315-.44.188-.064.337-.673.264-.369,1.419-.473.2-.129,1.417-.374h.4l1.513-.506,2.525-1.261,2.523-.252-.254,1.01-2.523,1.513v.506h1.261l3.154-1.389.883-.379,3.784-1.516,7.317-1.765,3.281-.506.252.506-1.429.817-3.365,1.2-2.271.758-1.071.315-.188-.064-3.029,1.01-.252.758h1.01l4.792-1.516.807-.252,1.716-.506.565-.207.948-.3v-.054l3.281-1.21,5.8-2.019,2.775-1.261,3.784-1.264.758-.252,2.271-.5.376-.254h.127l.252-.252,2.019-1.01,1.513-.252.252.5h.506l.755-1.01,3.533-1.767,1.513-1.01L440,350.642l3.533-2.019v-.028l.388-.226h.115l.758-.5,2.271-2.022.252-1.01h-.758l-3.533,1.01H440.5l-1.765-.755.252-.758,1.513-1.01,1.261-.252.252,1.261h1.01l1.01-1.01-.758-.252.254-1.012,1.513-1.765,1.513-.506,1.513-1.01.755-1.262.254-2.525.3-.1.2.1,1.01-.506,2.271-1.261,1.261-1.261.252-2.022-1.261-.252-1.261.758-2.523-.758-1.261-.5v-1.516h.5l.506-.758-.254-1.513-1.259-.254-3.784,1.264-.758-.254,1.765-.5,1.01-.506,2.523-1.513,1.513-1.768v-1.516l-.755-1.261-1.261-.252-.442.252h-.315l-1.01.758.758-2.273.758-1.261,2.775-.252.5-1.264h1.513l.254-.252-.758-2.271-.1-.1-.151-.4-.379-.127-.379-.377-.5-1.012,1.261-.5.252-2.273.252-.5v-1.01l-.252-1.264.5-.756.758-2.273.252-4.039h2.019l.252-.506v-2.777l-.252-2.019.252-1.01,1.765-.506v-.5l-1.765-.254-.758-.5-1.261-1.264-2.523.254-.756.5-1.1.631-.916.407-2.017.226H443.78l-.506-.506v-1.767l.252-.5,1.513-.254.506-.755v-1.767l-.252-.506v-1.513L446.3,280.2v-4.041l-.755-1.01v-1.765l-.506-.506-2.017-.506L441,271.367l-.461-.231-.3-1.031h.506l2.271-1.767v-1.261h-.758l-1.01,1.261-1.261.506-.5-1.767h-1.765l-.252.252-.506,1.767-1.323-.188-.666-.4-.786-1.179-1.513-2.019h-2.271l-.758.758-2.269-.254-.254.506-.756.758-1.01-.254-.5-1.513-1.261-.758-2.019,1.01-1.261.252-.755-.5v-1.516l.755-1.261,1.261-1.01,2.523-1.516.127-.125.631-.379.631-.885.883-.883h1.513l-.379-.127,1.134-.125,2.019-1.262,4.036-1.767.894-.482.619-.276.127-.126,1.64-.883,1.513-.757-.012-.052,1.777-.959,3.029-1.515,1.01-.5,2.523-1.767.252-1.262h-1.01l-2.271,1.767-2.017.252-.254-.252h-1.262l-2.269,2.02-2.019,1.262-.758.253h-2.017l-2.525,1.767v-1.01l-.224-.112-.028-.141-.113.069-.139-.069-.647.541-.362.217-1.344.842-1.683.673-.292.194-.212.058-.252.253-1.516,1.01-4.036,2.525L418.8,259.5l-4.036,1.516-.624.445-.132.059.028.016L413,262.28h-2.523l-.254.252-1.513.758h-1.765l-.252.254-1.262.252-1.01-1.264-2.271-1.01h-2.523l.252-1.262,1.01-1.767,1.513-.758,2.019-1.514,1.261-.757,1.01-.5-.506-2.02.506-.5,2.271-1.262.151-.5h.1l.5-2.02h.5l1.01-1.767,1.513-1.262.758-1.262,2.271-1.767,2.523-2.02,1.513.253.252-2.273,2.271-2.777.108-.217.08-.1.8-.947h.019l1.589-1.818.984-.909,1.212-1.06.238-.279.518-.478.958-.784.052.026,1.765-1.515,3.029-3.03,1.261-.5v.757l.094-.189.158.947h1.261l.755-.5,3.029-2.778,1.261-1.262,1.261-1.514.016-.084.739-.926-.5-1.515h.5v.5l1.01.505,1.052-1.262h.461l.252.252h1.261l-.252,1.515h-.5l-1.261,1.262-1.768,1.262-.5,1.01-1.01.252-2.017,1.767-3.533,3.535-.506,1.01h-.5l-.758.757.506.253,1.01-.757.692-.568.567-.442,0-.018,1.52-1.244,3.533-3.282,1.622-1.262h.144l.5-.5,1.262-.757,1.513-1.262,2.271-2.273,1.261.252-.252,1.515.252.757,1.262-1.01,1.765-.757,1.516-1.767-.254-1.01-1.007-.253-1.262,1.01v-1.01h.5l.5-1.01,2.019.253.506,1.01.118.029.134.223.379-.095.377.095v-.189l.252-.063.506-1.262v-2.777l.252-.757,3.029-2.272,1.765-1.262.541-.631.72-.631,1.513-.252.5.252.506.253-1.01,1.01v.505h.758l.755-.505.506-1.262-.049-.337.049-.168-.089-.119-.165-1.143,1.516-1.767,3.027-1.514,2.019-1.767v-.5h.5l.252-1.515H474.3l-2.017.5-.254.505-1.007.252V197.4l1.513-1.01,2.019-2.273v-.168l.478-.639.026.05.5-.757v-1.767l.252-1.767.758-2.777-.252-2.525-.252-1.515v-1.767l1.007-1.262-1.007-1.01.141-1.136.351-.934.012.051.252-.757,1.513-2.02.252-3.282,1.261-.5v.5h.506v.505l.5.252.252-1.767.892-1.069.118.059.252-.5-.252-1.767,1.261-.253,2.271.253.5-.505.254-1.262,2.775-.5.755-.5V161.8l-.089.361-.146-1.469.741-1.669.755-1.19.758-1.082.023-.147.228-.358-.1-.4.1-.606-.5-.757H490.45l-1.261.505-.151.1-.353.151-.631.505-1.137.757-1.261-.252-1.007-.253-1.01.757-2.523,1.01-1.261.757.252-1.514v-2.525l.758-1.01.252-1.262h-.758l-1.513,2.778-.092.276L477.835,157l-1.513,1.262.252-.757V156.5H475.06l.2-1,1.657-2.027.918-1.01.708-.808,1.337-1.451,1.487-1.276v-.5h.506l1.44-.9.828-.277.289.1.115.577-.153.757-.252.253v1.262h.758l.5-1.01h1.767l.5-.505v-1.514l-1.01-.505-.5-1.01L484.9,144.38l-1.765.252-.379.253h-.127l-1.765,1.262-2.271,3.03-.758.253.758-3.535-.758-1.262-1.007-.252-1.01.5v-2.02l-.758-1.01-.5-1.262,2.019-.5.252-1.262h-1.513l.5-1.767,1.01-2.525.252-1.767-1.262-.252-.755-.253-2.271-1.01-1.01-.673v-.084l-1.262-.757v-3.282l.252-1.01v-1.515l-1.01-1.262-1.007.253-.254,1.262-1.386-.347-.883-.663-1.01.253-1.261-.253-1.261.253.758,1.262.755,2.273-.5-.5-2.271-1.262-5.549-2.272-1.261-1.262-3.029.253-.5-.757-.758-1.262-2.017-1.01-.758-1.515-2.019.252-.252-.757-.252-2.272h.5l1.261.252,1.01.253.252-.5,1.513-2.525.254-1.767-1.262-.757H446.3l-1.01.757.252,1.767-.755-.253-.254-1.514-1.007-2.273-4.29.5-.5.5h-1.765v-.5l-2.078-.924-.193-1.348,1-.8,1.276-.212,1.261.757.755-.253.085-.084.421-.168v-.252l.252-.253.252-1.262h.5l1.061.707,1.21,1.06.313.134.445.371.593.074.417.178.431-.072.577.072.506-.252.755-3.535,1.261-2.525.758-.5,2.019-.505,1.007-.5,2.271-2.525.252-1.515-1.261-1.262-1.259.252-1.01,1.01-2.523.757-1.767,1.515-.252,1.767h-1.765l-.506.253-.252.757h-.5l-1.01,1.262-.755,1.514-.449.28L441,102.47l-1.513,1.01h-1.765v-.505l1.513-.252.5-1.01-1.007-.757-1.261-.5V99.188l-1.01-2.525,2.523-.5,1.01-1.01-.506-2.525,2.271-.253,1.01-1.514.127-.253.377-.5v-.253l.254-.5.252-2.273-2.271-.757-1.01.253v1.767l.5.5V89.9L440,90.1l-.252-1.262-.506-.757-.252-2.272H440V84.8l.755-1.262L440.5,82.02l-.045.178-.207-.936-1.01-.757V80l1.513-.5,1.212-.3,1.817-.2.755.757L445.8,79.5l-.5-1.515.755-.757.883-.252h1.137l1.261-.757,1.765-3.03,1.513.253.758-.757-.254-2.02h1.01l.506-.5.755-1.767h4.036l1.261-.757.758-1.262,1.513-.757,2.271-.757h1.765l1.01-.5,3.027-1.01.365-.2.141-.05.028-.045,1.737-.966,1.261-.253.252.5h.758l.252-1.01h.5l1.767-.757,2.523-1.01,4.036-1.262,2.019-1.01.337-.253h.167l.5-.5,2.019.5.758-.757,1.765-.757,2.271-1.262.525-.631.737-.631,1.765-.5,2.775-1.262-.252-.505h-1.261L496,51.473l-1.261.253-.5-.757-.04.078-.221-.277.007-.054-.252-.252h-1.513l-3.86.527-3.457.23-1.513.5-1.765,1.01.755,1.767H484.4l-.37.555-1.647.707-2.523.5-.758.568-1.765.442.755-1.01,2.019-.252,1.513-1.01v-.5l-.5-.253-.252-.757h.5v-.5h-1.513l-2.271.757-2.019.757.252.5H478.6l-2.523,1.01-2.271.5-1.01.5-2.775.757-2.777.253.4-.6.732-.459.132.044.758-.5,1.221-.544,1.553-.466,2.017-1.01v-.757l1.01.252.5-.757,2.271-1.01V50.967h.506l.064-.063,1.7-.189.085-.028.167.028.506-.252,1.007-1.515h1.261v.5h.506l.252-1.01h.755l1.261-.505v-.5l-.5-.253-2.775.253-1.262.5-2.019,1.01-2.271.252-.252-.5-.1-.025-.151-.227-.379.095-.379-.095-2.271,1.262h-2.271l-1.261.5-4.288,1.01v-1.6l.5-.168,4.956-2.066.092.046,2.523-1.01.167-.084,1.287-.451.059.029,2.019-.757,4.288-1.262.5-.5h-1.765l-2.271.5-.4.108-.866.144-2.271.757-1.047.175-.741-.106-.48-.321h-.758l-3.533,1.01-3.533,1.01v.032l-.756.221-2.233,1.34-2.561.932-2.775.757.755-2.273,1.134-1.59.857-.513,1.492-.689.049.016,1.01-.5,3.027-1.262,1.513-.5,1.513-.5.866-.289.144.036,2.019-.757,3.027-1.01,1.767-.757.252-1.01-3.029.5-1.261.757-4.54.757V38.849l-1.01-.757v-.757l2.775-2.273V33.8l-.252-.252H465.22V32.79h-.506l-.184.229-.068.023L463.2,34.3l-.014.045-1.247.713-.252-1.01-2.019-1.01L457.9,32.79l-1.261.252v-.757h-1.01l-.755.5-1.262.252-.252-1.262-.442-.442.191-.568,2.523-1.262-.506-.5-1.007.252v.5h-1.767l-1.01-.5-.5,1.262-2.271.252-.252-.5-.758-.252-.3.757h-.2v.5H446.3l-.885.379-2.648.884-.358.267-.652.238-2.523.757-.758.5-1.513.5-1.262.757-2.523,1.01-3.281.5-.252.757-1.261.757h-2.775v-.5H424.6l-.673.168-.84.084.139.092-.642.16h-.506l-1.513.5-4.036,1.767-.007.032-.5.221v1.262l-1.767.252.252,1.01-1.259-.5-1.261-.252-1.01.757-2.942.245.167-.5,1.134-.568.125.063.254-.252,1.261-.757,1.007-1.01.506-1.01-.758-.5-.252-1.01h-1.01l-2.017,1.767-.254.757-1.513.5-.252-1.262h-1.01l-.72.722-.468.216-2.6,1.082-1.262,1.515-1.262.757v-.5l-1.261-.252-.367.287-.137-.034-1.765,1.515-2.271.252-1.513.757-.723.577-.287.181-.758.252h-1.261l-1.261,1.01-1.765,1.515-1.513.252.755-1.01,1.01-2.02,1.513-1.515,1.261-.5,2.775-1.767,1.01-2.02,2.271-.5,3.027-.757,1.01-.252.506-.5-.254-.252v-.252l-.419-.168-.085-.084-.252-.051-.506-.2h-.5l.332-.552,1.181-.71,1.767-1.01,1.259-.252.254-1.262-1.261-.252-1.346.5H397.1l-2.019.5-1.765.757-3.784-.252-.758,1.767-.5.5h-1.767l-1.261-.252L383.731,39.6H381.46l-1.513.757-1.261,1.262-1.262.757v.5h2.019l2-.445-.238.95-1.259.5-1.767.5-2.523.757-1.765-.252-1.7,2.666-1.953,1.522-2.153.862-1.765.757-.758.252-3.784,1.515-.049.05-1.212.454L356.485,54.5l-3.281.757-.252.126-.5.126-1.01.631-.252.126.033.011-.791.494-6.056,2.02-1.513,1.262-4.288.5-2.019,1.01-2.271.5-.755,1.01-2.271.252-.739.259-.019-.006L326.209,65.1l-3.533,1.514-2.271.505-2.523,1.01h-2.271l-.252.5-1.325.568-2.208.442-1.513,1.01-3.027.757L303,72.424H299.97l-.252.757-1.01.252-4.036.253-1.261.5-3.281.757-.5.5-1.767.253-1.007-.5-2.019.5-2.271,1.262-3.027.757L276,79.492l-2.271.757-2.271,1.01-4.29,1.01-.5.505-2.271.5-1.01.757-3.027.757-.5.5-1.513,1.01L253.3,87.57l-2.019,1.262-3.533.757-1.261.5h-1.513l-.5.5-1.766.757-3.028.5.5-1.515h2.271l.757-1.01h1.009l1.009.5.758-.757,2.523-1.01.5-1.01h.506l1.259-1.01.506-1.767h-.506l-1.007,1.01-1.261-.253-3.785,1.01-1.009.757-1.766.757-1.009.757-2.523.505-.757.757H236.14l-1.514.757-2.523.505-2.775,1.262-6.56,2.273-2.775,1.262-3.028.757-3.532,1.01-4.541,1.515-1.514,1.01-2.775,1.01-3.784.5-.757.757-2.271.757-1.766.5-1.009.505-2.523.757L188.96,106.5l-5.3,1.515-1.261.757-1.766.252-.757.757-3.532.757-.757.5-2.271.505-1.514.5-.757.5-2.019.5-1.009,1.01-1.514-.253-1.261.5-1.766.505-4.037,1.514-2.271.505-.378.252h-.126l-.252.253-2.271,1.01-1.766.5-1.514.757-2.019.757-3.028.757-1.514.505-1.009.252-1.514.253-2.523.5-.757.5h-3.784l-.5-.5,1.766-.757,1.514-.252,1.261-1.01,1.514.253,1.261-1.01,1.766.253,1.766-.5.757-.505v-.5h1.009l.757.757.252.063v.189h.757l1.261-1.262,2.019-.505,1.514-.757v-.063l2.271-.947,2.271-1.01,1.513-.757.076-.126.323-.179.106.053.252-.253h1.261l.757-.252.126-.253.883-.5h1.514l1.009-.757,1.009-.253,1.261-.5,1.514-.5,2.523-1.01,5.046-1.515.5-.5h1.514l2.523-1.01,2.271-.757.252-.1.5-.152.084-.084,2.943-1.178,2.019-.5.757-.505,2.271-.5,1.009-.757,4.037-1.01.757-.505,2.271-.252.757-.5,2.271-1.01,2.271-.757,1.766-.757,2.775-1.01,3.028-1.262,2.523-.757,1.009-1.262,1.766-.253.5-.5-.5-1.01-1.261-.252-.5.5-3.028,1.01-3.28,1.01-2.523,1.01-1.766.505-2.775,1.01-4.037,1.262-2.271.757-1.261.757-1.766.757-2.271.253-1.514.757-2.271.757-3.532,1.262-.757.252-3.784,1.262-1.514.757-1.261.253-.5-1.01-1.009.505-1.009,1.514-1.261.253-1.261.5h-2.523l-.757,1.01-3.28,1.01-2.523,1.262-1.608.537-.158-.032-2.775,1.01-3.028,1.01H154.4l-2.271.5-.695.248-.062,0-2.775,1.01-.252.126-1.009.379.168.042-1.43.715-2.523.5-2.271,1.01-4.037.757-1.009.757h-1.514l-1.009.757-1.261-.253-1.009-.253-1.009,1.262-.252,1.514h-.757l-1.009.757-1.766.253-1.766.757-1.766,1.01-3.028.757-2.775,1.262-.454.2-1.06.3-.3.3-.454.2-2.775,1.01-.252,1.01,1.009,1.01.178-.059.074.059,2.775-1.01,2.271-.757,2.271-1.262,2.019-.253.757-.5h2.019l1.261-1.01h1.766l-1.766,2.273-2.271.757-.252.757h-2.271l-.757.568-1.766.442L117.815,132h-1.261l-1.766,1.01-1.766.757L111,134.778l-1.514,1.767-1.514,1.01-.5-1.262H106.21l-4.037,1.515-2.019,1.262-3.028,1.515-2.271.757-1.009,1.01-3.028.505-2.019.757-.5,1.767.252.757,1.261-.253v-.5l3.784-.253.5.505-.252,1.01-1.261,1.01,1.009.5.5.757.757.252,1.009-.757,2.271-1.515,3.028-1.515,2.271-.757,4.037-1.767,1.514-.505,1.514-.757,3.028-1.01h2.019l.5-.757,3.028-.5,2.523-1.767v-.505l1.009.253,1.009.253.252-.505,1.261-.757,1.261-.252.252,1.01.174.058.078.194.168-.112.337.112,1.009-.757,1.514.253,1.514-.757.757.757h-.5l-1.514.757-2.019.5-6.055,2.02-.757.757H119.58l-2.271,1.01-.252,2.02-.252.252-.252,1.262-1.766.505v-1.01l.5-.5V142.6l-.252-.253-.289.072-.217-.072-.336.21-.168.042-.168.168-1.345.841-.757,2.777-1.009-.252-.5-.757h-1.009l-1.009,1.01-1.009-.252-.757.252v1.01l-.5,1.262-1.261.5.252-.757.5-1.262h-.5l-1.009.757.252,1.515-1.514.5-.4.808-.437.146-1.177-.2v-1.262H99.9l-.5.5-.252,1.767-.252.253-1.009.253-.252-1.515-.757.253-.108.18-.144.072-.5,1.01-.673.673-.368.147-1.987.442-.252.253-1.261.5-.252.168-1.009.337-1.514.5-4.076,1.224-.213.039-.069.046-.688.207L83,157.5l-1.514.5-4.541,1.767-1.766.252-4.794,2.02-3.28,1.01-1.766.757-2.271.5-1.009,1.01-1.009.253-1.377.55-.138-.046-7.821,3.282v.1l-2.271.909-.757.757-1.261.757-3.28,1.262v.5h1.009l3.28-1.262,3.28-.757,5.418-2.485,3.161-1.3,1.261-.5.5-1.01h1.766l1.261-.5,4.037-1.262v-.5l2.523-.253.757-.757,2.523-.5.757-.757,1.261-.253,1.514-.5,2.271-.5,1.514-.757,2.019-.5.4-.3.1.05.5-.5H88.8l.5-.5h2.019l.757-.505,3.28-1.01-.5,1.515-3.28,1.01-.442.126-.525.137-.043-.011-3.784,1.01-.233.175-.272.078-.072.18-.432.325L83.505,162.3l-3.028.505-.757.5-2.019.5-1.261.757-1.766.5-.757,1.01-1.261.252L68.872,167.6l-1.009,1.514-1.009.253-.5-.757-.422-.061-.083-.192H64.583l-4.037,1.515-4.037,1.767-1.766.5-1.514,1.01H51.717l-3.532,1.515v1.515l.252.5h.252l.252.253,4.793-.253v1.01l-1.009,1.01.5,1.01H55l2.064-1.378,2.981-1.148,2.775-1.01.252-.253,2.523-.757,9.587-3.282-.5-.757-.252-1.01.757-1.767h1.261v1.515l-.757,1.515H77.2l.5-.253,2.019-.5,2.523-1.01,2.019-.253.252.253,2.271-.757h1.766l.252.757-1.009.5v1.262h1.514l.757-.253,2.019-.253,1.261-.757H94.86v1.262l-2.019-.253-.5.5V173.4l.757.757.134-.089.119.089.5-.5,1.261-1.262,2.019.253.5-.757,2.523-.253,2.271-.5.826-1.033.688-.229H105.2l-.252,1.262-1.766.5-.5.253-1.514.757-1.514.5-1.514.253-1.261.252-.252,1.262,1.261.253.5-.5h1.766l2.271-.505h2.019l1.009-.5h1.514l1.009-1.01h3.28l1.261.5-.252.5-8.074,2.273-1.766.5-1.009.505-2.019.252-1.009.757-1.766.253-3.28,1.01-3.532,1.01-.5,1.01-2.523-.252-.5,1.514-1.514.757v1.01l1.261-.253,1.261.253,1.261.5v.5h1.261l.252-.252V183.5l1.261.253.757,1.262h-.5l-1.261.757-3.28,1.767L84.767,188.8l-1.009,1.262.252.757h1.261l1.766-.5-.252,1.515h-.5l-1.009.757L81.487,194.1l-3.028.757-1.514,1.262-1.261.757-.5,2.02-1.766.5-2.019,1.01-2.523.757-1.261,1.01.252,1.767,1.514.757,1.261.253,1.235-.824,4.064-1.2,1.009-1.262,1.766-.757,2.775-1.262,4.541-1.262,5.046-1.01,2.775-.253.252.757-3.532,1.515-4.037,1.514-1.766,1.01-2.775,1.515-2.019,1.262-3.028,1.262-2.523.5-1.766,1.01v.5l3.532-.5-.252.757H74.675L73.414,209l-.5,1.01-2.775,2.02.5,1.01,2.271.5,1.514-.253,1.009,1.01-1.766.757L72.4,216.319l-1.261-.252L70.135,214.8l-1.514-.5-2.019-.253-2.271-.5-1.514-.757-1.009-.5-2.271-1.01-1.261-.252-.5.5.252,1.01.212.152.04.1.252.108.534.382-.029.015.315.189.442.316.133.029.371.223,1.261.141.5.112h2.523l3.532,1.767,2.019.505.5,1.01,3.784,1.262,2.271.5v1.262l-1.514,1.01-.252.757,2.019.757,1.009-.253,1.766-.252-.252,1.514,1.514.253.5.757-.252,1.01-1.514,1.262-3.28.757.252-.757-.252-.505-1.261.253v1.262h-.757l-1.009.5-3.785.757-.757.505-3.028,1.01-3.028,1.262-1.261.757-2.019.253-.252.252-2.523,1.01v.757h.757l3.28-1.01,2.775-.5,1.261-.5,3.785-.253.252.253.252,1.01-4.289.253-2.019.5L60.3,236.514l-1.009,1.767H58.025l-1.514,1.01H54.746l-1.514-1.01-1.261.252-.5,1.262-2.271.253-1.261.757-3.532.5v.5l.757.757v1.262l-1.009.757v1.01l-1.261,1.01-1.261.757.5,1.262-.757.757-1.261-.252-.252-1.01-.5-.5-.5-1.262h.5l.757-1.01H38.852l-2.271-.252-.757.252v1.262l.757,1.262.252,1.262-.5.757-1.261-.253H33.806l-.757.5-1.261.252-1.009.252.757.757.252.253.252,1.262-2.271.757.252,1.262,2.271.252.5-.252,1.514-.253V256.2l-.5,2.272-1.009,1.01v.758l1.009.252,1.009-1.261,2.271.506.757.755v1.264l-.757.252-1.009-.252-.275.068-.482-.068-.05.2-.2.049v.758l-.242,1.454-.715,1.311-.052.012-.5,1.01-2.019.758-.757,1.767-.757-.254-1.261-.5-1.261,1.01-.5,1.261-2.523,1.767-1.261,2.777-1.009,1.01-1.261,1.767-.252,1.767-.252.252-.252,2.273.757,1.261.5,2.273h-.5l-.252.125-.757.127-1.766,1.262-.5,2.525h-4.8v.758l.757.758,2.271.252v2.019h.168l.084.506h2.019v.758H17.4Zm89.061-154.01-.5,1.01-1.261,1.262h-1.261l-.252-.505.252-2.02,1.009-.757,2.019.253v.757ZM65.341,173.664l-1.766,1.515-.378-.126-.126-.126v-2.02l.252-.5.757-.253.095-.189.158-.063,1.009.253v1.515ZM30.776,281.976l-1.57,1.8-.448.224-.5,1.516-.757-.252V284l1.009-1.01-.09-.045,1.352-1.217,1.009-.506v.758ZM153.393,122.664l1.514-.253,1.009-.5v.757l-2.019,1.514-1.766.505-.921.527-.088-.022-.168.168-.589.337h-1.009l-.252-1.262.5-.5,2.523-.505.5-1.262.5-.252ZM424.865,39.346l-.252,1.01.045.023-.045.229-5.3,1.515h-1.007v-.53l2.271-.227.5-.5,2.271-.757.379-.379,1.134-.379ZM489.7,54.579v-.084h-.755V53.99l1.01-.252,1.735-.158-.221.663-1.344.384-.424-.047ZM439.245,347.368l-4.036,1.767.252-.5v-1.01h-1.513l-.631.252h-.125l-.506.252-5.8,2.777-4.036,2.273-4.036,1.767-3.784,1.765-4.036,2.022-.673.28-.085-.028-2.271,1.01L404.682,361l-3.281.506.252-1.264,3.281-1.01-.3-.1,1.817-.908,2.271-.5,1.262-.506,3.027-2.019,3.029-1.01,8.487-3.4.344.115,9.588-4.8h1.513l1.261.758h1.765l.758-.254ZM81.74,229.461v-.5l1.514-1.01,2.271-.505-.252,1.01.14.07-.327.2-.066-.022-1.766,1.01-1.514-.253Zm43.9-88.115-.5.505-.252-1.01Zm13.624-11.109v-.5l.757-.253v.757Zm30.275-8.079.252-.5.5.5ZM343.373,62.069l1.007-.5,2.523-.505-.252.757.057.028-.057.225-2.523,1.01h-1.01ZM458.167,162.05l.353-.05-.1.05h1.513l.252-.252.5-1.01.506.253v2.273h-1.261v.252h-.506l-2.523,2.777-1.01,1.01-1.765.5-2.019,1.515.254.063-.254.189h-.252l-.5-.505,1.01-2.02,1.007-1.01-.275-.069,2.546-1.7,2.523-2.273Zm5.046,42.668-.179.361-.325.27-.694.347.442-1.989,1.01-.252-.144-.095.4-.158.113-.285.424-.33.219.11,1.261-1.01,1.01-.252v.757l-.758.252-1.261,1.262.16.08-1.673.93Zm-1.765-3.03v1.01l-1.261.757h-.252l-.7-.087.172-.257.024.092,1.01-1.262.167-.084.84-.168Zm-19.68,124.976v.506l-2.019.252v-.5l1.01-.254Zm-308.559-7.825v-.506l1.059-.53,2.725-.228,2.523-.756h2.271l-.5.252-6.56,1.516v.252h-1.514ZM49.446,304.951l.757.254v1.513l-.757.758h-.5l-.757-1.261Zm67.363-145.426.252.757-1.261,1.01h-.757l.252-1.262Zm22.887-20.7H138l.252-.757.5-.5.5-.253v-.253l.252-.252.252-2.525-1.261-.252.725-.967,1.378-.3h.42l.757-.252.4-.794.865-.217,1.514.5.5-1.01.757-.253v.5h.5l-.252.757-.757.253-2.019,1.01-2.019-.252-1.009,1.01.5.757-.252.757v1.01h1.514l.252-.252.252-.253,2.019-.252.252-.505h.757v1.262l-1.514.253-.757.5.168.056-1.177.2-2.523,1.01v.226l-.072.027ZM373.4,51.465v-.5l.755-.253v1.01ZM437.48,86.811l-1.01,1.262h-.5L433.947,85.8l.5-1.01h2.523l.506,1.767v.253Zm10.344,84.833,2.271-1.515-.5,1.262h.224l-.28.253h-.45l-2.523,2.273.068.034-.546.312-.278-.093-.254-.757,2.271-1.767Zm22.16,10.015.294.084-.5-1.262h1.261l.5,1.262.758,1.01v6.817h-1.261l-.506-1.262h-.252l-.252-2.273.252-3.787Zm-2.229,19.272v-.757h.5v.757Zm-5.046.505.93-1.3.372-.319.212.106,1.262-1.01-.252.757-1.513,1.262.125.084-.492.329-.643.092ZM452.2,206.149l-.84.337.5-.757-.1-.051.1-.2,1.01-.5-.167.673Zm-1.092-3.955v-1.01l.5-.253v-2.02h.5v2.273l-.4.808Zm-47.938,65.391v-.252l.254-.252h.252l.5-.506h1.01v.506l-1.262.758-.817-.2.059-.049ZM120.342,307.73l-.673-.169.5-.252.421-.085Zm176.094,74.443-1.252.289v.167l-8.578,2.862-8.83,3.283-5.222,2.13-.327-.111-4.542,1.767-2.269.506.181-.367.322-.139.014-.021,1.89-.828,2.384-.918,5.046-2.019.108-.073,2.921-1.189,3.784-1.264,4.792-1.768,4.794-1.513,4.036-1.01.153-.153.485-.08.111.447Zm-52.721,19.477,1.009-.758.622.155-.874.351-.421.252Zm2.02-1.01,2.523-1.261.755.252-.631.315-.125-.064-2.179.873Zm10.344-3.787-.758-.254.758-.252ZM126.4,166.342v.5l-1.009.505h-1.261v-1.01l1.514-.757.568.189Zm-3.027-7.574-2.019.5v-.757l.5-.5,1.766-.253-.252,1.01Zm37.845,142.4-2.019.506v.144l-1.009-.144,1.147-.69,2.89-.826-.208.831Zm61.7-6.18-.395-.132L220,296.116l-3.028.758h-2.523l-5.8,1.261-.5.252H207.7l.189-.758,3.028-1.01.757-.5h-.036l3.064-1.264,7.569-2.019,2.775-.252.252,1.01-.5.5-1.876.89ZM186.948,118.371l.5-.757,1.514-.253.252.757-.757.5Zm-31.79,15.148v.505l-1.514.757h-.757v-1.01l2.271-.253Zm-3.28-.252-1.261.5.252,1.515-1.514-.5-1.766-.253v-.757h.5l1.009-.757-.126-.042.631-.21.395-.527.362-.23,1.514.252Zm90.827,269.141-3.028,1.261-3.523,1.581-.262-.066-1.766.758-2.271.755v-.755l3.028-1.264,2.523-.756,2.775-1.012,1.766-.784,1.009-.226ZM353.969,59.039l-.5.253-.252-.757h.755Zm25.987-6.817v-.505h.756l-.252.505ZM429.6,43.07l.428-.144-.113.459-.506.252ZM441.768,126.2l.252-.505,1.01-.252v.757l-.5.5h-.506ZM455.9,194.114l.708-.707.471.118.082.084-.252,2.02-.36.181-.65-.13v-1.565Zm6.168-5.863-.113.561-1.259,1.262.158.053-.348.2h-.315l-1.513.757.252-.757,1.01-1.01,2.055-1.371.075.3ZM334.795,261.527l1.765-1.767,1.765-.254-1.259,1.264.12.059-1.888,1.2h-.631l.127-.5Zm97.891-51.759.252.084-.5.421-1.01.505-.5,1.262h-.506v-1.01l1.01-1.01,1.261-1.01,1.262-.5ZM413.512,54.747l.176-.353.059-.034.268.135,1.01-.505,1.513-.5.275.092-.132.2-.647.216L413.512,55Zm-21.7,217.888,2.777-2.022-1.01,1.516.049.026-.706.53-1.363.454.254-.5Zm34.314-169.412.755-.253-.252.757Zm-1.262,110.585,1.513-1.767,1.765-2.02,1.247-.208-.49,1.47.12.04-.275.212H428.4l-2.459,1.894-1.325.883.252-.5ZM421.846,96.271l.965.351,1.045,1.046-2.019.253-.755.5-1.768,1.515-2.269,1.514.5-2.273,1.262-.757-.311-.1.562-.4,1.261-.5V96.153l.5-.253.254.092v.16l.765.118Zm-1.017,55.175v1.01l-1.767,1.514h-1.007v-.757l1.513-1.515Zm-1.01-55.8L418.3,95.4v-1.01l1.01.252Zm-15.644,137.1.6-.808.341-.17.064.095v.379l-.29.217-.72.289Zm-30.384,3.246-.271-.09.379-.126-.108.217ZM359.636,160.01l.261-.044.127.063h.694l-.191.152-2.269,1.363-1.01.252.5-.5-.137-.069Zm-11.723,90.154,4.542-3.282v-.267l.322-.238h.435l2.017-1.262v1.01l1.243.414-.991.848-.252.5-1.261,1.01-3.027,2.273-6.056,4.04-.758-.253v-2.02l3.784-2.777Zm47.938-15.843v.189l-1.261,1.01v-.757l.755-.253-.108-.036Zm11.436-4.187-.337.337-.963.8-.3-.3,1.767-1.514-.169.673ZM424.8,218.289l.026-.045.289-.144,2.775-3.535.252-.5.631-.252h.127v.5l.1.05-.6,1.212h-.506v.5l-3.027,3.03-.2-.4Zm1.577-125.418V95.4h-.758l-.755-.757-.506-1.262-.151-.152-.1-.353-.5-.253-.252-.253-.506-1.262,1.261-.252,1.01-.757h-.127l1.61-.757h1.292L427.64,91.1l-.758.505-.5,1.262Zm-83.005,162.6.252.252-.252.757-2.1,1.527-1.431.24.252-1.262,2.019-1.515Zm33.808,91.4-2.019.755-2.523,2.022.071.035-1.139.76-1.706.214-1.516-.758-1.765-.252.252-.506,2.523-.252,1.516-.506.84-.84.419-.294.254.125,1.007-.758,1.01.254h1.261l2.019-.506,1.765-.252.252.5-2.523.254ZM414.773,96.658l.755-.252.252,1.01h-1.007ZM392.319,339.794l.082-.085,1.683-.421h.379l.379.252.252.506-2.777.5v-.755Zm29.769-119.927-1.513,1.767-2.017,1.515-.1.3-.4.2-2.523,1.01-2.271,1.515v.5h-.5l-1.513,1.01-3.281.505.127-.505h.125l.254-.5,2.775-2.273,2.019-1.641,1.765-1.388-.045-.011.3-.242,2.523-1.515,1.262-.757,3.784-2.525.252,1.01-.755,1.262.151.454-.151.3h-.254Zm12.869-12.624V208h-.506Zm-.711-161.777-.635.191h-.042l-.379-.252v-.5l1.261-.252Zm-3.831,284.987h1.01l-.252.755h-.758Zm6.056-127v.5l-.5.253-.506.5-.252.21v-.21l-2.163,1.984-1.061.849-1.57.449.254-.757,1.007-1.262,1.767-1.767h-.254l.506-.5v.252l2.775-2.777-.132-.066,2.1-1.8.807-.4,1.765-.757-.252,1.01-.755.757.252.126-.758.883-2.017,2.02-1.01.5Zm17.576,3.2-.419.841-.127-.126-.125-.379Zm7.905-10.52-1.007.757v.084l-.506.421-1.261.505-.252.5-1.513.5-1.01,1.515-1.261.421v-1.43l.758-1.01h1.261v-.5l1.262-1.262.755-1.767h-.5l-.252-.5.252-1.01,3.027-2.777,1.261.253.184.818-.184-.06.254,1.515v1.767l-.254.757-.755.252.337.084-.337.168h-.254ZM386.263,92.619h-.758l-.252-1.262,1.01-.505.5.757ZM369.358,54.495l-.252-1.01,1.01-.253.252,1.262Zm13.121,288.834h.5l3.784-1.01.758-1.264,1.513-.5h3.027l-.5,1.01.144.071-.433.289-.214-.108-1.24,1.064-3.05.7-2.523,1.513-1.261.506-.5-2.273Zm14.128-67.917v-.506l1.01-1.261,1.513-.5-.252.755.146.075-.475.332.078-.153-2.019,1.261ZM412,240.57l-.755.5-.233.583-.019.017v-.095l-1.262.757v-.5l1.513-1.767,1.01-.252Zm57.524-52.263-.5.757.151.606-.151.4h-.252l-1.57,2.02h-.7v-2.02l-.252-2.273v-3.535l.5-1.01.758-.252.5,1.262.758,1.262.5,1.767.5.757-.094.253h-.158Zm-35.9-87.393.073-.217-1.513.253-1.01,1.262v1.262l-.052.051-.2-.051-.506.505-1.261-.253-.082-.168-.1-.491.061-.816.372-1.3.506-.5h1.765V97.92l-.252-.252-.217-1.511,2.236.248v.505l1.007,2.272.252,1.262-1.007.252v.2l-.073.014Zm.828-8.3-.252.5h-1.01l-.755-.757-2.271-.5v-.5l3.281.252,1.007.505v-.2l.118.047.134.408.08.039-.016.024Zm1.261-1.01.254-.757-.073-.144.073-.361h.5l.442.663ZM363.3,55.126l.506-.379h1.513l-.252,1.01.125.063-.883.442-1.01-.253Zm-6.811,4.418h-1.01v-.757l.1-.291,1.163-.466-.252,1.514ZM165.5,125.188v.5l-.5.253h-1.514l-.252-.253.252-.757,1.766-1.01,1.514-.253.252,1.01Zm-8.073,8.584h-.757l-.252-1.01,1.261-.5.252,1.01ZM153.9,132.51h-1.514v-.5l1.261-1.01,1.009-.253.252,1.01Zm-32.8,15.149h1.009v1.01h-.757Zm-23.211,9.089v-.757l1.514-.505v.505l-.757.757Zm4.6,7.511.442-.442,1.514-.253-.638,1.488-1.129-.226-.189-.568Zm8.01-1.2-1.766.5-.252.253-2.019.252.252-1.262h.5l-.063-.126.442-.126h.378l.152-.152.353-.1,2.019-1.01,1.514-.252.252.757-.757.757Zm-17.156,2.273,1.009.252L94.1,167.1l-1.009.253-.252-.757Zm6.56-.506,1.766-.252-.5,1.514-1.766.505v-1.262Zm-3.28,2.273.5-1.01.734-.184.275.184.252.757.168.056-.673.449-1.261-.253Zm11.605,0h-.757l.252-.757h1.009ZM128.92,321.616l.126.127-.883.377Zm-5.55-1.516-.168-.5h1.177v.755Zm3.28-1.261-.757.758h-.5v-1.01Zm-4.962,5.048h-1.85v-.758l1.766-.252,1.766.252v.254l-1.682.5Zm3.953-1.513.5-.254,1.261.254-.5.5H125.64Zm5.046-4.545-.5-.254.5-.252ZM367.341,359.74l-4.542,1.767-4.54,1.513-4.039,1.01v-1.01h.758l3.533-1.01L362.3,360.5l4.288-1.516,6.559-2.777,4.794-2.525v-.758l-1.261-.252-4.288,1.767-5.046,1.767-4.036,1.767-2.523,1.01-2.6,1.01-.685.252-4.794,1.513-1.692.713-.831.3v.052l-2.271.958-5.046,1.765-4.54,1.767-1.513-.252-.506-1.01h1.767l.44-.442.442-.188.379.125,1.344-.588,3.533-1.414,5.467-1.53.454-.153,1.311-.353,1.513-.588.506-.169,5.549-2.019,2.271-.758.755-.252.191-.127.946-.377h.125l.033-.064.473-.191,3.027-1.261,3.784-1.516,5.046-1.513,2.271-.758,4.288-1.516.254-.5-.266.08.433-.25.337.169.755-1.01v-1.516h1.516l5.046-1.513,3.784-1.264.377-.125.631-.127,2.523-1.01,4.039-1.516,2.775-1.261.626-.3.129.045,4.039-2.019,3.784-1.767,3.278-1.264.252-.5h2.271l8.83-3.029,1.262-.254v.758l-.756.252.252.085-1.01.673-5.3,2.019-2.775.758v1.264h1.765l1.261-.254-5.549,2.525-3.281,1.516.318.106-.318.146-.268.118-.235-.118-3.533,1.516-2.271,1.01-3.281,1.513.108.073-4.4,2.2-8.578,4.039-5.8,1.767-2.523,1.01-9.082,3.029-6.307,2.273Zm81.24-149.467.1.051-.1.2-.254-.5h.169Zm7.569-4.545-.758-.253.758-.253Zm1.513-1.767.758-.252-.254.757h-.5Zm3.278-4.544-.755,1.262-1.765.5-.078.379-.3.5-.379.379-.758.253.254-.757,1.007-1.262,2.019-1.515,1.261-.253.252-.252-.049-.017.515-.687.459.115.085.084-.252,1.262h-1.516Zm7.065-2.02h-.755v-1.01h1.007ZM446.814,38.336l-2.523,1.515-2.017.5-.254.252-1.007.5h-.254l-1.007-1.01.755-.252v-.5l.169-.168.082.168.254-.252,2.017-1.01.918-.688,1.859-.826h2.775v.252l-.252.252-1.513,1.262ZM357,57.019h1.767l.287-.433.723-.451.5-.126,1.765-.252v1.01l-1.765.253v.253h.252l-.5.168v-.168h-1.261l-2.019.5Zm-5.8,2.02v1.01l-1.513.757h-1.01V60.3l1.261-1.262Zm-9.84,4.545L336.812,65.1l-1.261.757.071.023-.574.229-.289.722-.217.289-2.017-.505V65.6h1.007l.826-.184.689-.069.188-.126.567-.126,3.784-1.515,2.019-.5-.252.5Zm-179.383,57.06-.757.757h-.757l-.252-.757,1.766-.5Zm-1.766-1.01h-.5l-.252-.5,1.009-.505Zm-2.018,2.777h-.5v-.757l1.514-.5.252.5Zm-3.028,5.049,1.514-.5.757-.505,1.514-.757,2.271-.252.252-.757h.5l.5,1.01-1.009,1.515-1.766-.252-.252.5-2.019,1.262h-1.766l-.5.5-1.766.5-1.682.421-.336-.168-2.775,1.01-1.766.5.252-1.01,1.261-.757,3.28-.757h.757v-.505h1.009Zm-22.2,5.3.757.253v1.01H132.7l-.252-1.01Zm4.037,6.059-.252.757h-.5v-.505Zm-34.817,29.035,2.271-.757-.252.757-1.009.5-1.009-.168v-.337Zm5.046,1.263,1.009.253-.252,1.01H106.97Zm11.605,138.357v.506l-1.009-.252Zm11.051,5.453.3.1,1.261-.5,1.261-.254-.757.506-1.261.758-1.766.5.252-.755Zm88.554,100.739,1.069-.275.5.125,2.775-1.01,7.569-3.029,8.326-3.535,2.218-1.036.052.026,1.514-.758L248,401.9l7.317-3.281,8.072-3.031,6.813-2.271,7.409-2.836,3.441-1.2,2.648-.946,1.64-.567,7.065-2.525,4.54-2.019,1.01-.506.127-.252.461-.308.167.056,1.01-.758.158-.127,1.1-.631,1.01-.421,1.01-.337.6-.337.4-.167,1.885-1.028,3.73-1.624,2.459-.984,4.036-1.414v-.056l3.784-1.2.426-.155,1.087-.351,2.65-1.01,1.386-.5.407-.179.854-.327,1.262-.588,3.784-1.683,2.523-1.01-.755,1.261-2.775,1.767-4.29,1.767-1.262,1.01-2.019-.252-1.513.252-1.007,1.01-1.767.5-2.523,1.01-3.533,1.264-6.811,2.271-1.513.506-.04.118-.97.388-.252.755h1.01l2.523-.252,1.429-.337,2.859-.572v.134l-.577.271-3.1,1.358-5.907,1.419v.019l-1.01.233L291.9,386.5l-14.128,5.048-7.569,3.031-6.056,2.523-7.569,2.779-6.562,2.777-10.6,4.039-4.037,1.768-8.326,3.283-8.326,2.777-1.893.755h-.126l-4.289,1.767-1.514.254-.252-1.264,3.532-1.01,4.541-1.261-.305-.1Zm103.493-19.339.191.379.024.148-1.224.734h-2.269v-.5l1.259-.758ZM427.388,228.7l-.758.757-2.271,1.767v.5h-.5l-.252.5-2.777,2.778-.5.5-2.019,1.767-.337.842.085-.337-1.01.757-.336.337-.419.169v.252l-.252.253-1.767,1.262-.819,1.026-.946.237.252-.757,1.01-.757.226-.3.53-.454-.137-.069.894-1.193,1.01-1.01,2.017-1.515.506-.253v-.252l.252-.253.5-.5,2.777-2.273,2.271-2.273,2.017-2.02,1.262-1.262.134-.333.372-.425-.092-.276.092-.229-.184-.046-.071-.207-.376.095-.379-.095-.233.247-.019.005-1.01,1.094L423.6,229.46l-1.262,1.262-1.513,1.767-1.513,1.01.252-1.515.5-.757.506-.757,2.271-2.272,2.017-1.515,1.513-2.02,3.029-1.515,1.01-1.262,1.007-1.515,1.767-2.525,1.513-.5v1.01l.5.5.758-.5.252-1.262-.506-.5-.5-1.767h-1.765l.755-1.01.506-.5.5-.253.252-.5,1.513-1.262.506-1.262,1.261-.253-.252.757-.758.5-.252,1.01,1.765.252,2.019-1.262,1.513-1.262.252-1.262-.5-1.262,1.229-1.026.033.016.252-.252.5-1.01h.506l1.261-1.262.628-.158.631.158.506.5-.252,1.01.5.5,1.262-1.262,1.01-1.01,1.261-.252v.757l-1.01,1.515-1.01.5-.5,1.515,1.261.252-.252,1.01-.506.252-1.01-.252-1.261.252.254-.757-.506-1.767H446.31l-1.767,1.262-.252.757h.5l-.252,1.515-.755,1.262.755.757-.5,1.515-.758.252-1.261.757-.5,1.515h-.5l-.254.253-2.017,1.767-.485.583-.777.679-1.261.253-.506,1.262-1.007.757-1.261,1.767-2.019,1.767-3.533,3.282h.127l-.631.252ZM468.259,62.069l-2.017.5-2.271,1.01-1.01-.253.252-.757,1.765-.757L467,60.807l1.262.252v1.01Zm1.261-2.02,1.262.252v1.01l-1.007-.253Zm-6.256-11.614h.706v.5h-.758v-.379Zm.706-7.574h-1.01l.506-1.01,1.259-.252v.757ZM451.86,31.772l-.5.757-1.261.5v-.5l1.054-.615.713-.143ZM183.668,119.129l-.252,1.01-.543.155-.466-.155-2.523.757-1.514.757-2.271.5-.252.253-1.514.5-.757.5-2.271,1.01-.252.252H170.8l-2.775-.252-.21-1.052.174-.174,1.3.217,1.009.253.225-.449.28-.056h.5l1.261-1.01,1.261-.253.757-.757H176.1l1.261-1.01,1.766.5v-.5l.5-.253,2.019-.5.5-.5,1.514.253ZM156.42,121.4h-.757l-.252-1.01.5-.253,1.009.253ZM125.8,132.195l1.1-.442v1.212l-1.009.808-.757-.253Zm6.907,10.92h1.766l.757-.757,1.766-.5,2.483-.9.292.146,4.794-1.515-.034-.067,1.295-.185v1.01l-.757.757-3.28,1.01-2.271.757-3.028,1.262-2.271-.252-1.514,1.767-3.028-.252-2.019,1.01v.361l-.252.144-1.766.253-1.261,1.01-1.261-.253v-.757l.757-.757,1.766.253v-.505l.757-.757,1.766-.253.757-.253,1.766-.757,2.019-1.01Zm-20.688,6.816h.757l1.261.253.5-.253.361-.722.649-.541,1.261-.253.5.5-.252,1.01-2.523,1.01-1.261.757-3.532.757-.63-.252-.378-.253v-.757l2.019-.253.252.505h.5l.5-1.515ZM99.1,169.366l.049.005.066-.266,1.2-.239-.757,1.514h-.5l-.14-.561.091-.454ZM87.038,395.845l-3.7,1.028-2.1.233-1.514.758-.252,1.01-2.019.252-2.271.758L71.4,401.4l-.721.541-.009,0-.027-.04-1.009.252-2.523.506-.5-.506V401.4l1.009-.755-.049.007,6.609-2.281,5.55-1.261,4.541-1.516,2.775-.758v1.012Zm97.387,14.643,1.009-.506,2.271-.252v.252l-2.019,1.01h-1.261Zm37.592-18.178-6.056,1.513-3.028.506h-1.766l-3.532.5,3.028-1.261,8.073-2.525,13.624-3.787,3.028-.5,1.239-.551L237.66,386v.252l-2.019.506-5.046,2.019-.078.078-.427.174.189.064-.105.106-.841.336-7.316,2.777Zm102.938.5v-.5l-1.01-.758-1.01.252-1.513.758-1.007.758-2.525.5-.647.433-.866.073-.617.176-.645.075v.108l-2.271.649v-.506h.506l.854-.388.407-.115.233-.177,1.28-.581,6.811-2.273,3.243-1.527.038.012,1.01-.5,2.523-.758-.758,1.01.092.047-.344.2-2.271,2.022-.5,1.01Zm121.506-69.633-.4.2h-.252v.125l-.454.228-.3-.1-.252-1.01.756-1.01,1.261.252-.035-.071.541.322-.252.758-.758.252Zm.607-108.616v-.757h.5v.757Zm.631,2.146.125-.379.946-1.1.315-.158v-.21l.252-.295,1.513-1.01.254-.253h.252l.5-.757,1.513-.5.758-1.515,1.44-1.924.577-.1.506-1.01h.5v-.505h.5l.588-.673-.082.168.755-.5,2.019-1.515.252,1.515-.049.151-.2.1v.505h-1.765v1.01l-.758.757-1.892,1.515-1.134.757.144.036-.2.161-.2.056-.5.5-1.261.5-.5,1.515-1.01.757-1.513.757-.758,1.01-1.765.757-.038.136-.087-.263Zm22.579-21.334v.505l-.758.757-.755-.253v-1.01l.337-.5.475-.428,1.459-.834,1.261-.5.252,1.01-1.01.757ZM235.389,92.366l1.766-.252.5-.757h1.009v1.01l-1.766.505-1.261.757-.757-.252Zm-53.992,20.2,1.766-.5,1.261-.505,2.775-1.01,1.766-.505,1.766-.252,2.523-1.01.5-.5,2.523-.5,1.514-.757,1.766-.5L201.58,106l.5-.5,1.261-.253,1.009-.5,1.766-.5,1.514-.757.757.253-.5,1.01L205.616,106l-2.019.505-2.271,1.262-2.775,1.01-2.523,1.01L193,111.05l-2.019.253-1.766.757-2.271,1.01-2.019.757-3.028,1.262H180.89l-.5-.5-.252-1.262,1.261-.757Zm-7.317,3.787.5-1.01H176.1l1.009-.757,2.271-.5v1.515l-1.514,1.262-2.775.757-1.009-.253-1.514.253v.5l-1.514.252-1.262.253-2.019.757h-.757l.252-.757,1.261-1.262h2.019l1.514-1.262,2.019.252Zm-8.326,2.273v.757l-.757.5-1.514.253v-.757l.5-.5.757-.5ZM142.544,126.7l.5-.5h1.261l.946-.757h2.082l-.5,1.01-1.514.505h-.5l-.757,1.01H141.03l-.252-.757ZM138,124.936l1.009-.253-.252,1.01H138Zm-21.445,13.381-.5-.253V136.55l.757-1.515h.5l.757,1.01.252,1.262Zm4.793-2.272-.757-.253.757-.252Zm8.326-1.01.252-.757,1.261-.252v.757l-.5.252Zm2.019,3.282h.5v-.505h2.523l1.261-.757-.252,1.515-1.261.5-1.009,1.515-1.009.5v-.5l-.541-.18-.217-.325h-.5Zm-2.271.757h.757l-.5,1.515-1.514.5-.5-.252-.5-1.01,1.009.505Zm-8.073,2.273,1.261.505v.757l-1.766.757-1.009.757h-.757l.252-1.515,2.019-1.262Zm-10.344,6.06-.252,1.01h-.5l-.252-1.01Zm-27,20.7.252-2.02,1.261.253.252.757-1.009,1.01h-.757Zm6.812,1.263H89.814v-1.01l.5-.505,1.009.253Zm6.56,1.515-1.514.757v-.505l.4-1.212.606-.3v-.072l1.261-.18ZM83.506,213.556l-.252.757-.757-.253Zm-9.335,17.168h.757v.757h-.757Zm-15.895,10.6h1.261l1.514-.757,1.009,1.01v1.767l-.252.252H60.294l-2.271-1.01.252-1.262Z" transform="translate(-9.835 -22.177)" fill="#b5e448"/>
  <path id="Path_1225" data-name="Path 1225" d="M930.952,226.108l2.271-1.01h1.513l.757-.505,1.766-.252,2.019-.757,2.27-1.262h2.271l.757-.505,2.271-.758,2.271-1.01,2.269-.505,1.01-.757,1.767-.253,1.261-.757,3.027-.758,1.513-.757,5.3-1.767,1.259-.758,3.532-1.01,2.271-1.01,4.036-1.514.758-.758-1.513-.253-1.01.757-2.271-.253-1.513,1.01-2.775.5-1.262,1.01H964.76l-3.533,1.767-2.271.505-.252.252-2.775,1.515-2.271.253-1.513.5-1.765.758-4.795,1.767-2.27.505-.757.5-1.766.5-.757.506-2.271.757-2.523,1.01-1.766.253-.757.5-2.271.5-.5.505-.5,1.01,1.009.253Z" transform="translate(-710.696 -159.959)" fill="#b5e448"/>
  <path id="Path_1226" data-name="Path 1226" d="M631.421,340.268l1.261-.757.5-1.767h.5l.252,1.262,1.009-.253,1.766-.5.5-.5,2.019-.757.252-1.515.252-.5.252-.253,2.019-.757.5-.5,1.766-.5,2.523-1.01v-.5h.5v-.5l-2.523.252-.252-.757-.757.757h-1.261l-1.514.253-1.261,1.767-1.261.253-.757-.757-.252-.253-.42.084-.336-.084-1.261.505-.023.138-.734.367-.045.133-.208.119-4.541,2.02-1.009,1.01.252,2.273-1.514,1.767-.5,1.01h1.009l3.28-1.515Zm-1.261-1.768,1.009-.252.252,1.262h-1.261Z" transform="translate(-479.537 -252.658)" fill="#b5e448"/>
  <path id="Path_1227" data-name="Path 1227" d="M1185.335,185.34l2.523-.505,2.271-.757,2.271-.5,1.261-.5,2.019-.5,1.261-.505,1.765-.505,4.036-1.262,2.6-1.154.433-.108,1.513-.757.5-1.01-1.513-.253L1203,178.523l-2.525.505-2.775.5-6.055,2.272-2.269.757-2.019,1.01-2.271.757-.5,1.01.5.253Z" transform="translate(-905.791 -135.349)" fill="#b5e448"/>
  <path id="Path_1228" data-name="Path 1228" d="M25.35,1058.775l.5-.506,2.523-.506.252-.756-.757-.254.5-1.513.221-.5.032-.007.757-1.768,2.019-2.271.252-1.264-1.01-.252L28.9,1050.8l-2.035,1.666-1.009,1.261-.252.308L23.836,1056l.046.141-.3.365v1.516l.253.5Z" transform="translate(-18.033 -802.257)" fill="#b5e448"/>
  <path id="Path_1229" data-name="Path 1229" d="M1417.646,111.383l2.017-.758,5.046-1.262,2.693-1.01h.082l1.261-.5.379-.126,1.388-.379.252-.168.883-.295.379-.042,2.775-1.01.758-.253.252-1.01-.5-.5h-1.261l-2.019,1.01-1.765.757-.793.289-.722.216-2.523.757-.1.2-.906.3-7.065,2.02-1.765.757-.254,1.01Z" transform="translate(-1082.846 -79.57)" fill="#b5e448"/>
  <path id="Path_1230" data-name="Path 1230" d="M236.926,1537.622l-.641.176-.174.115-1.087.388-.252,1.01,1.009.254,1.514-.254,3.279-1.01,2.523-1.01.252-1.01-.5-.5-.4.049-.1-.049-.116.077-1.4.174v-.758l1.009-1.01v-1.01l-1.262-.254-2.018.758-.084.085-.421.167-.168.421-.336.336.077.311-.077.2.178.207.075.3.315.157.946,1.1h-.5Z" transform="translate(-179.519 -1172.211)" fill="#b5e448"/>
  <path id="Path_1231" data-name="Path 1231" d="M1171.525,1624.19h-1.261l-3.027,1.01-1.767.506-4.792,1.261-2.525,1.01-2.523.758v.506h1.261l2.019-.506,6.811-2.019.139-.139.367-.115h1.513v1.264l1.261.252,1.01-.5,2.271-.758v-.506h-1.01Z" transform="translate(-883.654 -1241.939)" fill="#b5e448"/>
  <path id="Path_1232" data-name="Path 1232" d="M972.892,1637.318h.758l2.775-1.01v-.292l1.261-.464,1.768-.758,1.108-.506h.153l.322-.216,1.191-.541,3.784-1.513,1.765-.758,6.561-3.283,3.278-1.261,1.984-.522.035.016,2.775-.758,2.019-.756v-.506h-1.516l-.939.245-.068.007-.283.085-4.511,1.179-3.281,1.261-3.154,1.261h-.125l-2.523,1.012v.028l-1.767.727-4.794,2.273-1.513,1.01-.038.078-.972.68-2.523.758-4.112,1.309-6.232,1.72-.621.233-.136.019v.033l-3.278,1.231-.29.216-1.982.793-1.513.758-2.649,1.262-3.406,1.516-3.028.755-1.261.506-.252,1.264.5.5h1.766l1.009-.758,2.271-.758,3.74-1.454.3-.059.5-.254,2.522-.5.254-.252.5-1.516,1.01.252.5.506h1.768l.252-.252v-.254l.252-.5-.758-1.264,2.523-.758,2.271-.252.758,1.262,1.513.506-.252-2.777Z" transform="translate(-724.632 -1241.939)" fill="#b5e448"/>
  <path id="Path_1233" data-name="Path 1233" d="M634.951,249.517l3.784,1.01.5,1.01,1.009,1.01,1.514.253,2.018-.505,3.532-1.767-.5-.253-3.532,1.515-2.775.253-.5-.253-.757-1.767-1.009-.505.757-.5,1.009-2.02-.5-.253-1.009,1.767h-2.775l-2.05-.474.032-.032-1.262-.252-5.3-.505v1.01l2.27.5Z" transform="translate(-479.536 -188.67)" fill="#b5e448"/>
  <path id="Path_1234" data-name="Path 1234" d="M1507.573,87.653l2.523-1.01,2.271-.757,1.765-.252,1.01-.757-.506-1.01-.5-1.263h-.5l-.4,1.414-.6.606-3.533.757-3.281,1.262-1.765.758v1.01h2.271Z" transform="translate(-1150.066 -63.163)" fill="#b5e448"/>
  <path id="Path_1235" data-name="Path 1235" d="M1126.942,217.712l-4.036,1.514-.506,1.515.252.505h1.261l1.01-1.01h1.767l.5-1.01h1.765l1.261-.757.254-.757h.5l.252-.757-1.261-.253-1.765,1.01Z" transform="translate(-858.245 -165.701)" fill="#b5e448"/>
  <path id="Path_1236" data-name="Path 1236" d="M177.7,1643.311l3.28-.254.5-.252,1.514-1.261.5-1.012-.757-.252-1.514.252-1.261.506-3.028,1.01-1.345.56-.168-.054-1.514.758-.252.756,1.261.254,1.01-.254-.022-.106Z" transform="translate(-132.795 -1254.242)" fill="#b5e448"/>
  <path id="Path_1237" data-name="Path 1237" d="M1681.112,1470.407l-2.02.758v-.758l-.151.151-.1-.4h-.506l-.5.169-.5.085-.506.252-.755.252-.085.169-.169.085v.252l-.252.5.252.064v.191l2.777.252,1.513-.506.012-.049,1.25-.454,4.288-2.022.252-.755h-1.259Z" transform="translate(-1281.22 -1122.998)" fill="#b5e448"/>
  <path id="Path_1238" data-name="Path 1238" d="M704.568,277.976h2.522l3.785-.5,2.523-.5.5-1.01-.5-.253h-1.514l-7.569,1.263Z" transform="translate(-538.556 -210.817)" fill="#b5e448"/>
  <path id="Path_1239" data-name="Path 1239" d="M399.737,461.359h2.018l2.523-.757.757-.758.252-1.767h-1.009l-1.009.757-1.766.5-1.261.758-2.271.757-.252.757,1.009.253Z" transform="translate(-304.116 -350.269)" fill="#b5e448"/>
  <path id="Path_1240" data-name="Path 1240" d="M897.342,284.1v-.506h1.009l3.28-1.262.252-1.262h-1.262l-2.018.5-2.019,1.01-1.261.5-1.009.252-.252,1.263h.757Z" transform="translate(-683.646 -214.92)" fill="#b5e448"/>
  <path id="Path_1241" data-name="Path 1241" d="M1580.976,1482.145l2.271-1.01v-1.262l-1.01-.5-1.513,1.01-1.767.5-1.765.758-.252,1.01,1.007.252Z" transform="translate(-1205.81 -1131.202)" fill="#b5e448"/>
  <path id="Path_1242" data-name="Path 1242" d="M1492.815,1497.479l-3.785,1.516v.5h1.514l-.252,1.516-1.768.252-1.513,1.01-2.019,1.01-.252,1.01H1486l1.262-.252,2.777-1.01,3.026-1.768.5-1.767,2.777-1.01.148-.207.1-.045.167-.337.843-1.179.252-1.261h-1.01Z" transform="translate(-1135.309 -1143.506)" fill="#b5e448"/>
  <path id="Path_1243" data-name="Path 1243" d="M315.173,1302.927l.252.5,2.019-.5,4.541-1.516,3.28-1.261,1.261-.758-1.009-.252-8.326,2.777Z" transform="translate(-240.997 -993.389)" fill="#b5e448"/>
  <path id="Path_1244" data-name="Path 1244" d="M1383.031,103.113h1.513l.5-.5v-1.262l-.5-.506-2.523.253-1.01.758-.252,1.767,1.01.253Z" transform="translate(-1055.8 -77.107)" fill="#b5e448"/>
  <path id="Path_1245" data-name="Path 1245" d="M1729.986,1452.228l-3.785,1.261-.252,1.012,1.262.252,2.523-1.01,2.775-.758.252-1.261-1.262-.254Z" transform="translate(-1319.75 -1109.869)" fill="#b5e448"/>
  <path id="Path_1246" data-name="Path 1246" d="M1729.795,22.469l2.271-1.01,2.017-.5v-.1l.506-.151,4.625-2.315.169.042,2.187-1.094,1.85-.673,2.017-.5,1.768-1.01,2.523-1.01.033-.067,2.238-.942.882-.379,2.144-.884-.047-.016.553-.237,3.53-1.515.254-.757h-.758l-.6.227-.151.025-2.777.5.252-1.515h-.5l-3.027,1.262.5,1.01-3.281,1.515,0,.019-.5.233-2.523.757-.758.5-1.008-.252-1.01,1.01-1.261.5-.506.379-.252.126-1.765.758-.315.316-.443.189-.063.316-.44.442-1.767-.252-1.007,1.01-3.029,1.768-2.775.5-2.019,1.01-.5,1.262,1.261.252Z" transform="translate(-1320.568 -6.563)" fill="#b5e448"/>
  <path id="Path_1247" data-name="Path 1247" d="M1287.43,1601.1l-1.673.527-.094-.024-3.027,1.01-.506.758h1.513l1.516-.252.388-.155,1.629-.351,2.775-1.01.506-1.01h-1.01Z" transform="translate(-980.382 -1223.894)" fill="#b5e448"/>
  <path id="Path_1248" data-name="Path 1248" d="M1671.461,1350.756l2.775-1.264.45-.28.057.028,1.513-1.01,2.523-1.261,3.027-1.77.254-1.01h-1.513l-1.01.506-6.813,3.787-2.271,1.516-.252.758.506.252Z" transform="translate(-1277.121 -1027.837)" fill="#b5e448"/>
  <path id="Path_1249" data-name="Path 1249" d="M1734.024,923.791l-1.264,1.515-2.521,2.525,1.008.253,2.019-1.767,4.288-4.04-.252-.758-1.513,1.263Z" transform="translate(-1323.03 -704.64)" fill="#b5e448"/>
  <path id="Path_1250" data-name="Path 1250" d="M1581.037,1504.231l-3.027,1.261-3.281,1.264-1.01.758.758.5,1.261-.5,1.765-.758,4.036-1.767,3.281-1.264.5-.755-1.765.5Z" transform="translate(-1203.347 -1149.248)" fill="#b5e448"/>
  <path id="Path_1251" data-name="Path 1251" d="M1102.917,231.026l.506-.253.5-1.01-.252-1.01-.5-.253h-1.516l-1.765.758v.5l1.261.757Z" transform="translate(-841.032 -174.724)" fill="#b5e448"/>
  <path id="Path_1252" data-name="Path 1252" d="M1860.079,1097.772l.252-1.765-.252-1.767h-.755l-.254.5-1.259,1.01v1.264l.756.755,1.261.254Z" transform="translate(-1420.577 -836.712)" fill="#b5e448"/>
  <path id="Path_1253" data-name="Path 1253" d="M910.982,1651l-1.765.758-3.027,1.261-2.523,1.01-1.768.758-3.533,1.516-4.036,1.513-3.784,1.516-2.775,1.01-3.532.758-1.01,1.01-2.269.252-2.525,1.261-2.523.758-1.765.758-5.8,1.768-4.541,1.261-4.541,1.516-7.316,2.777-1.513.252-.5-2.019-1.261-.254-2.271,1.01-.421.337-.336.169v.1l-.5.4.084.336-.084.17.216.36.036.146.126.125.378.631.378.127.126.127.172-.028.08.028.567-.127,2.46-.379-.252.506-1.261.755-2.271,1.01-2.523.254-.5-1.01-1.261-.254-1.009.506.252,1.513.252,1.264-.883.252h-.126l-2.523.758-3.028,1.513-.5,1.009h.5l.5-.251,2.019-.5,4.541-1.768.288-.217.721-.29,2.523-.758h2.523l.236.631-.236,1.894-2.019,1.01-2.775,1.515.252.758,1.009.252,2.776-.758,6.56-2.019,5.3-1.516,1.766-.758.252-1.01-.757-.758-.5-.5-.485-.193-.02-.059-.757-.254v-.5H857.5l-1.261.758-4.289.5-1.514.506-1.261-.254.144-1.153.865-.866,1.766-.252.252.252,1.261.252.42-.252h.084l1.324-.758,1.7-.756,2.523-1.264,3.28-1.261,1.829-.694.946-.315,2.019-.758,2.019-.758.1-.1.406-.156,2.019-.5,1.513-.758,2.271-.506.758-.5,1.513-.506h.5l2.271-.758.153-.087.6-.165,1.452-1.04.061.03.447-.336,1.349-.579,3-.6.176-.177.33-.075.574-.313.184.061,2.017-1.264h1.767l.252-.252.252-.252,1.21-.807,1.144-.287,1.683-.167,1.059-.708,1.429-.52,1.3-.287,2.019-1.264,6.307-2.523,2.523-.506.252-.252-.252-1.516-1.261-.252Zm-55.252,21.713-.5.252h-.252v-.5h.673Zm-1.766.252-.252.506-.757-.254Z" transform="translate(-637.745 -1262.44)" fill="#b5e448"/>
  <path id="Path_1254" data-name="Path 1254" d="M1184.994,1640.482l-.353.049-.421.337-.336.169-1.358.544-.156-.038-1.01.5v.758l1.01.252,2.523-1.01.115-.233.563-.311.08.04.756-.506v-.758h-1.01Z" transform="translate(-903.329 -1254.242)" fill="#b5e448"/>
  <path id="Path_1255" data-name="Path 1255" d="M150.461,651.177H149.2l-1.262,1.01.5,1.767H149.7l.757-.5Z" transform="translate(-113.121 -497.924)" fill="#b5e448"/>
  <path id="Path_1256" data-name="Path 1256" d="M764.474,305.87l3.028-1.263V303.6h-1.514l-.757.757-1.766.505-1.262,1.262,1.262.253Z" transform="translate(-582.82 -232.146)" fill="#b5e448"/>
  <path id="Path_1257" data-name="Path 1257" d="M707.722,318.048l.252-.252-.252-.063v-.189l-.454.076-.3-.076-.541.217-.216.036-.144.108-.361.144-.038.156-.466.349-1.766.506-1.261,1.01v.505h1.261l1.009-.757,1.766-.5.378-.253h.126l.252-.253.757-.5Z" transform="translate(-536.917 -242.81)" fill="#b5e448"/>
  <path id="Path_1258" data-name="Path 1258" d="M329.109,654.27l2.523.253,1.009-1.01-.252-1.01-1.262-.253-2.018,1.01Z" transform="translate(-251.654 -498.744)" fill="#b5e448"/>
  <path id="Path_1259" data-name="Path 1259" d="M352.127,1328.04l.757-.758-1.262-.252-3.028.758h-.5l-.5.252-.252.758,1.009.252,1.766-.252Z" transform="translate(-265.589 -1014.716)" fill="#b5e448"/>
  <path id="Path_1260" data-name="Path 1260" d="M1391.732,134.539l-.252,1.01h1.007l3.533-1.262.252-1.01-.5-.253-1.765.505Z" transform="translate(-1063.997 -101.717)" fill="#b5e448"/>
  <path id="Path_1261" data-name="Path 1261" d="M1404.34,1557.114l-4.036,1.516-.254.755h.758l1.513-.252,3.533-1.513.5-1.01h-1.007Z" transform="translate(-1070.55 -1190.264)" fill="#b5e448"/>
  <path id="Path_1262" data-name="Path 1262" d="M1325.141,155.932l2.017-.5,2.019-1.01.252-1.01h-.758l-.5.5-1.765.505-.506.5-1.765.253-1.009.5-.252.758h.5Z" transform="translate(-1011.535 -117.304)" fill="#b5e448"/>
  <path id="Path_1263" data-name="Path 1263" d="M315.742,630.165V628.9l-.757-.253-1.262,1.01-1.766.757v.757l1.766.253.5-.505Z" transform="translate(-238.539 -480.698)" fill="#b5e448"/>
  <path id="Path_1264" data-name="Path 1264" d="M350.172,648.969h2.018l.252-.253v-.757h-2.775l-1.009.757-.252,1.263,1.009.252.252-.252Z" transform="translate(-266.408 -495.463)" fill="#b5e448"/>
  <path id="Path_1265" data-name="Path 1265" d="M1870.1,935.591l-.5,1.01,1.261.253.755-.757,2.778-1.768.5-1.01h-1.01l-.5.5Z" transform="translate(-1429.593 -713.664)" fill="#b5e448"/>
  <path id="Path_1266" data-name="Path 1266" d="M248.772,1291l3.028-1.01v-.506h-1.514l-1.766.506-2.775,1.01-.252.758.757.252Z" transform="translate(-187.717 -986.003)" fill="#b5e448"/>
  <path id="Path_1267" data-name="Path 1267" d="M316.624,522.572l1.009-.758v-1.262l-1.009-.252-.505.5-.5,1.01-1.261.252-.252,1.01h1.009Z" transform="translate(-240.178 -397.847)" fill="#b5e448"/>
  <path id="Path_1268" data-name="Path 1268" d="M1802.557,1402.876l-2.29,1.236-4.2,1.989-.125.188-3.66,1.831-2.017,1.01v.506h1.261l-.252,1.01h.5l2.271-1.01.078-.059.426-.2.252-.315.254-.188,1.262-.758,3.784-.5.5-.254.422-.673.082-.085,1.264-1.892.5-.631,2.017-.506.506-1.767v-.758l-2.775,1.767Z" transform="translate(-1368.933 -1071.315)" fill="#b5e448"/>
  <path id="Path_1269" data-name="Path 1269" d="M1642.267,1480.44l-.755.758-1.767.252-.443.221-1.323.282-1.01,1.01.5,1.264h1.261l1.767-1.264,2.017-.5.758-1.01-.252-.758Z" transform="translate(-1251.711 -1132.021)" fill="#b5e448"/>
  <path id="Path_1270" data-name="Path 1270" d="M332.389,638.3h-1.01l-1.766.758-.5,1.262,1.766.253,1.01-1.01Z" transform="translate(-251.654 -488.08)" fill="#b5e448"/>
  <path id="Path_1271" data-name="Path 1271" d="M284.715,858.1l-.252-1.768-1.766-.252-.757,1.01.252,1.01Z" transform="translate(-215.586 -654.602)" fill="#b5e448"/>
  <path id="Path_1272" data-name="Path 1272" d="M333.839,547.751l.757-.505-.757-.757,1.262-1.262-1.262-.252-1.261.5-.252,1.01.5,1.262Z" transform="translate(-254.113 -416.715)" fill="#b5e448"/>
  <path id="Path_1273" data-name="Path 1273" d="M1747.894,1434.753l-.5,1.01.756.254.758-.254,1.513-1.513.506-1.01h-1.01Z" transform="translate(-1336.144 -1095.929)" fill="#b5e448"/>
  <path id="Path_1274" data-name="Path 1274" d="M149.009,1680.982l.505.755,1.514.254.757-.758.252-1.264h-1.514Z" transform="translate(-113.94 -1284.592)" fill="#b5e448"/>
  <path id="Path_1275" data-name="Path 1275" d="M1436.065,88.094l1.765-.5.774-.331.235.079.758-.5-.254-1.01-4.036.505-.588.252h-.167l-1.01.5-.252,1.262,1.007.252Z" transform="translate(-1095.967 -65.623)" fill="#b5e448"/>
  <path id="Path_1276" data-name="Path 1276" d="M1925.531,787.926l-.252,1.262-1.01.252v1.01l.758.253,1.007-.757.758-1.515-.252-1.01Z" transform="translate(-1471.396 -602.103)" fill="#b5e448"/>
  <path id="Path_1277" data-name="Path 1277" d="M1558.9,35.465l.252-.757,1.01-1.515.506-1.01h-1.01l-2.019,2.02.252,1.01Z" transform="translate(-1191.052 -24.609)" fill="#b5e448"/>
  <path id="Path_1278" data-name="Path 1278" d="M1026.99,261.632l.252.5h1.516l1.261-1.514-1.01-1.01-1.01.253.252,1.262h-1.01Z" transform="translate(-785.29 -198.513)" fill="#b5e448"/>
  <path id="Path_1279" data-name="Path 1279" d="M373.757,478.334l2.523-1.01.5-1.01h-1.261l-1.262.757-2.018.758-.252.757h1.261Z" transform="translate(-284.443 -364.214)" fill="#b5e448"/>
  <path id="Path_1280" data-name="Path 1280" d="M309.813,646.761h1.009l1.766-.253.252-.253.505-1.262-1.01-.252-2.018,1.01Z" transform="translate(-236.899 -493.003)" fill="#b5e448"/>
  <path id="Path_1281" data-name="Path 1281" d="M62.367,1038.007l.252-.252.252-1.261-.5-1.264-1.009.254-.252,2.271Z" transform="translate(-46.724 -791.59)" fill="#b5e448"/>
  <path id="Path_1282" data-name="Path 1282" d="M1858.88,345.941v.5l.755,1.01,1.01.505.5-.505.254-1.01-1.262-1.01Z" transform="translate(-1421.395 -264.138)" fill="#b5e448"/>
  <path id="Path_1283" data-name="Path 1283" d="M140.751,1661.67l.252-1.01h-.5l-3.28,1.01v.758h1.261l1.514-.252Z" transform="translate(-104.925 -1269.826)" fill="#b5e448"/>
  <path id="Path_1284" data-name="Path 1284" d="M520.939,1691.78h-1.766l-3.28.755-.252.758.5.254,3.785-1.012Z" transform="translate(-394.286 -1293.622)" fill="#b5e448"/>
  <path id="Path_1285" data-name="Path 1285" d="M1966.08,764.577v1.262l1.261.252.5-.5.252-1.262-1.261-.505Z" transform="translate(-1503.366 -584.055)" fill="#b5e448"/>
  <path id="Path_1286" data-name="Path 1286" d="M566.152,1681.554l.757-.5-4.037.252-3.28,1.009v.252h1.514l2.018-.252Z" transform="translate(-427.893 -1285.418)" fill="#b5e448"/>
  <path id="Path_1287" data-name="Path 1287" d="M320.912,693.017l-1.009.252-1.262.757-.252,1.01h1.262l1.513-1.01Z" transform="translate(-243.457 -529.917)" fill="#b5e448"/>
  <path id="Path_1288" data-name="Path 1288" d="M1401.13,96.992l.252,1.263,1.01.252,2.017-.757.252-1.01-.755-1.262-1.767.5Z" transform="translate(-1071.376 -73.007)" fill="#b5e448"/>
  <path id="Path_1289" data-name="Path 1289" d="M56.186,1020.029v-1.01l-.5-2.019-1.01.252.253,2.525Z" transform="translate(-41.805 -777.651)" fill="#b5e448"/>
  <path id="Path_1290" data-name="Path 1290" d="M1718,1452.54l-2.523.506-.252,1.01h1.261l1.765-.5Z" transform="translate(-1311.553 -1110.687)" fill="#b5e448"/>
  <path id="Path_1291" data-name="Path 1291" d="M1340.715,116.744l.252-1.01-1.007-1.768-1.01-.253.755,2.778Z" transform="translate(-1023.83 -86.952)" fill="#b5e448"/>
  <path id="Path_1292" data-name="Path 1292" d="M185.462,1416.07H184.2l-3.532.506v.052l-1.261.2-.566.174-.444.077-.162.109-5.388,1.659-.252,1.264h1.766l.757-.254,4.5-1.261h.289l1.514-.506.713-.266.045.014,3.28-1.261Z" transform="translate(-131.975 -1082.8)" fill="#b5e448"/>
  <path id="Path_1293" data-name="Path 1293" d="M1134.825,202.945l1.01-1.01-1.01-.253-1.765.757-1.01,1.01.758.252Z" transform="translate(-865.624 -154.217)" fill="#b5e448"/>
  <path id="Path_1294" data-name="Path 1294" d="M1054.423,239.987h-1.01l-1.765.252v.506h-1.765l-1.767.5-.755.757-1.516.253-.5.5-2.019.253-.252.252v1.515l1.01.505,1.01-.757,1.01-1.01,1.007.253,1.01-.253,1.767-.5,1.262-1.01,1.261.253,1.725-1.037.04.027.758-.5,2.523-.506v-.5l-2.523-.5Z" transform="translate(-797.585 -182.928)" fill="#b5e448"/>
  <path id="Path_1295" data-name="Path 1295" d="M1449.431,1536.726l.026.026-2.045.732-1.01.755-.252,1.012h1.513l4.542-2.022v-1.01h-1.261Z" transform="translate(-1105.801 -1174.673)" fill="#b5e448"/>
  <path id="Path_1296" data-name="Path 1296" d="M349.037,1263.992l-2.523.758-.252.758h1.009l2.775-1.012.757-.755Z" transform="translate(-264.77 -966.321)" fill="#b5e448"/>
  <path id="Path_1297" data-name="Path 1297" d="M1509.529,69.92l.252-1.263h-1.259l-.758.5-.5,1.01h2.017Z" transform="translate(-1152.529 -52.499)" fill="#b5e448"/>
  <path id="Path_1298" data-name="Path 1298" d="M190.756,1627.853l2.019-.5,1.009-.758-1.261-.252-2.271.5-.5.758Z" transform="translate(-145.09 -1243.583)" fill="#b5e448"/>
  <path id="Path_1299" data-name="Path 1299" d="M1443.252,1529.79l-1.01.252-1.262.5-1.01.254-.252,1.01h.755l.506-.254,2.017-.755Z" transform="translate(-1100.884 -1169.756)" fill="#b5e448"/>
  <path id="Path_1300" data-name="Path 1300" d="M1401.312,3.282l.254-.252V0h-.506l-.5.757-.506,1.263.758,1.262Z" transform="translate(-1070.55)" fill="#b5e448"/>
  <path id="Path_1301" data-name="Path 1301" d="M284.336,706.4l-.252,1.01h1.261l1.009-.5.5-1.01h-1.514Z" transform="translate(-217.225 -539.761)" fill="#b5e448"/>
  <path id="Path_1302" data-name="Path 1302" d="M165.089,1677.2l1.262.506.757-.758.252-1.264-1.766.506Z" transform="translate(-126.236 -1281.311)" fill="#b5e448"/>
  <path id="Path_1303" data-name="Path 1303" d="M295.057,639.881l-.252,1.01h.5l2.018-.5.5-1.01h-.757Z" transform="translate(-225.423 -488.9)" fill="#b5e448"/>
  <path id="Path_1304" data-name="Path 1304" d="M40.547,1042.931l-.252-1.261-2.775.252.252.758Z" transform="translate(-28.689 -796.514)" fill="#b5e448"/>
  <path id="Path_1305" data-name="Path 1305" d="M788.374,299.748l.5-.252v-.757l-.5-.505h-1.261l-.252.505.252,1.01Z" transform="translate(-601.674 -228.044)" fill="#b5e448"/>
  <path id="Path_1306" data-name="Path 1306" d="M1792.035,843.9l1.513-.757.252-1.01-1.007.253v.505h-.506l-1.262.757-.755,1.01.755.252Z" transform="translate(-1368.933 -643.938)" fill="#b5e448"/>
  <path id="Path_1307" data-name="Path 1307" d="M1.009,1109.948l.757-.5.253-1.012-1.01-.252-.757.506L0,1109.948Z" transform="translate(0 -847.371)" fill="#b5e448"/>
  <path id="Path_1308" data-name="Path 1308" d="M1725.568,1340.345l.5-.506-.5-1.01h-1.262l-.506,1.01.506.252Z" transform="translate(-1318.106 -1023.738)" fill="#b5e448"/>
  <path id="Path_1309" data-name="Path 1309" d="M1629.592,1462.2l-2.271.252-2.019.506-2.017.758-.254.756.758.254,2.271-.758,2.523-.758Z" transform="translate(-1241.052 -1118.073)" fill="#b5e448"/>
  <path id="Path_1310" data-name="Path 1310" d="M1370.987,111.507l-.252-1.01-1.261.252-.5,1.01,1.007.5Z" transform="translate(-1046.785 -84.492)" fill="#b5e448"/>
  <path id="Path_1311" data-name="Path 1311" d="M1894.25,203.45h.506l3.533-1.262v-.5l-4.039,1.01Z" transform="translate(-1448.441 -154.217)" fill="#b5e448"/>
  <path id="Path_1312" data-name="Path 1312" d="M1558.962,1523.856l-.252.755h1.513l1.264-.755v-.506h-1.768Z" transform="translate(-1191.87 -1164.832)" fill="#b5e448"/>
  <path id="Path_1313" data-name="Path 1313" d="M292.662,655.659h1.513l1.009-1.263h-1.766l-.5.253Z" transform="translate(-223.784 -500.385)" fill="#b5e448"/>
  <path id="Path_1314" data-name="Path 1314" d="M738.809,318.616l-1.261,1.263,1.261.253,1.261-1.263Z" transform="translate(-563.967 -243.63)" fill="#b5e448"/>
  <path id="Path_1315" data-name="Path 1315" d="M1713.08,949.286l.758.253.5-.758v-1.515l-1.261.252Z" transform="translate(-1309.909 -724.328)" fill="#b5e448"/>
  <path id="Path_1316" data-name="Path 1316" d="M608.211,273.749l-.5-1.01-1.766-.252-.252.757.505.253Z" transform="translate(-463.14 -208.357)" fill="#b5e448"/>
  <path id="Path_1317" data-name="Path 1317" d="M231.113,1300.21h-1.261l-1.514.5v.758h1.01l1.514-.5Z" transform="translate(-174.599 -994.208)" fill="#b5e448"/>
  <path id="Path_1318" data-name="Path 1318" d="M1370.987,144.762l.252-1.01h-1.261l-1.007.505v.757h1.007Z" transform="translate(-1046.785 -109.92)" fill="#b5e448"/>
  <path id="Path_1319" data-name="Path 1319" d="M311.579,661.023l.252-.253.252-1.01-1.766.252-.5,1.01Z" transform="translate(-236.899 -504.487)" fill="#b5e448"/>
  <path id="Path_1320" data-name="Path 1320" d="M1772.04,909.339h1.261l.506-1.01-.252-.758-1.264.758Z" transform="translate(-1354.993 -693.976)" fill="#b5e448"/>
  <path id="Path_1321" data-name="Path 1321" d="M1807.42,47.707v.757l.758.252,1.007-.5.254-1.01h-.758Z" transform="translate(-1382.047 -36.093)" fill="#b5e448"/>
  <path id="Path_1322" data-name="Path 1322" d="M934.925,1717.774l-.757-.254-1.514.758v.506l.757.252,1.01-.252Z" transform="translate(-713.155 -1313.304)" fill="#b5e448"/>
  <path id="Path_1323" data-name="Path 1323" d="M736.6,310.287l-.5-.252-1.766.757v.5l.757.252,1.009-.252Z" transform="translate(-561.509 -237.069)" fill="#b5e448"/>
  <path id="Path_1324" data-name="Path 1324" d="M279.8,646.256h.757l.5-.252.252-1.262-1.261.252Z" transform="translate(-213.947 -493.003)" fill="#b5e448"/>
  <path id="Path_1325" data-name="Path 1325" d="M159.352,1657.45l-1.514.252-.252.758,1.009.252.757-.506Z" transform="translate(-120.498 -1267.372)" fill="#b5e448"/>
  <path id="Path_1326" data-name="Path 1326" d="M904.4,1730.329l.252-.756-1.01-.254-1.009,1.01,1.262.254Z" transform="translate(-690.204 -1322.327)" fill="#b5e448"/>
  <path id="Path_1327" data-name="Path 1327" d="M294.49,665.124l-.252.253-.5,1.01h.757l1.009-.5.252-.757Z" transform="translate(-224.603 -508.588)" fill="#b5e448"/>
  <path id="Path_1328" data-name="Path 1328" d="M1241.4,1623.052l1.007.252,1.261-.758v-.506l-1.513.254Z" transform="translate(-949.238 -1240.295)" fill="#b5e448"/>
  <path id="Path_1329" data-name="Path 1329" d="M715.034,329.281H716.8l.252-1.01h-1.261Z" transform="translate(-546.752 -251.013)" fill="#b5e448"/>
  <path id="Path_1330" data-name="Path 1330" d="M1162.513,215.819l-.254-1.01-.755-.253-.5,1.262,1.259.253Z" transform="translate(-887.76 -164.061)" fill="#b5e448"/>
  <path id="Path_1331" data-name="Path 1331" d="M263.717,651.62h1.009l.252-.253V650.1l-1.009.5Z" transform="translate(-201.652 -497.104)" fill="#b5e448"/>
  <path id="Path_1332" data-name="Path 1332" d="M269.77,1464.028v-.758h-1.261l-.5,1.01h1.261Z" transform="translate(-204.93 -1118.892)" fill="#b5e448"/>
  <path id="Path_1333" data-name="Path 1333" d="M1313.6,132.456v-.5l-2.019.253-.5.505.755.505Z" transform="translate(-1002.519 -100.897)" fill="#b5e448"/>
  <path id="Path_1334" data-name="Path 1334" d="M295.814,689.988l.757-.5-.252-.757h-.5l-1.009,1.01Z" transform="translate(-225.423 -526.635)" fill="#b5e448"/>
  <path id="Path_1335" data-name="Path 1335" d="M1782.76,898.359h.506l.5-.252.5-1.262-1.259.5Z" transform="translate(-1363.19 -685.774)" fill="#b5e448"/>
  <path id="Path_1336" data-name="Path 1336" d="M372.368,1291.63h-1.009l-1.514,1.01.505.252,2.018-.758Z" transform="translate(-282.803 -987.647)" fill="#b5e448"/>
  <path id="Path_1337" data-name="Path 1337" d="M201.729,1552.816l-1.009-.506-.252,1.264.757.252Z" transform="translate(-153.288 -1186.976)" fill="#b5e448"/>
  <path id="Path_1338" data-name="Path 1338" d="M1482.285,79.575l.506-.252.252-1.01h-1.01l-.5.5.252.757Z" transform="translate(-1132.854 -59.882)" fill="#b5e448"/>
  <path id="Path_1339" data-name="Path 1339" d="M609.915,377.808l.252-.252v-1.01l-1.009.253-.252,1.01Z" transform="translate(-465.601 -287.926)" fill="#b5e448"/>
  <path id="Path_1340" data-name="Path 1340" d="M258.61,786.4l-.252,1.01,1.009.253.252-1.01Z" transform="translate(-197.554 -601.323)" fill="#b5e448"/>
  <path id="Path_1341" data-name="Path 1341" d="M360.45,1278.944h1.009v-1.012l-.5-.252-.757.252Z" transform="translate(-275.426 -976.98)" fill="#b5e448"/>
  <path id="Path_1342" data-name="Path 1342" d="M1854.781,31.048l.252-1.01h-1.01l-.5.757Z" transform="translate(-1417.297 -22.969)" fill="#b5e448"/>
  <path id="Path_1343" data-name="Path 1343" d="M1900.559,40.2v-.5H1899.3l-.758.757h1.513Z" transform="translate(-1451.721 -30.352)" fill="#b5e448"/>
  <path id="Path_1344" data-name="Path 1344" d="M313.029,675.79l.5.253.5-.253.252-.757-1.009-.252Z" transform="translate(-239.358 -515.972)" fill="#b5e448"/>
  <path id="Path_1345" data-name="Path 1345" d="M307.667,687.337l1.01.252.5-.757-1.261-.253Z" transform="translate(-235.258 -524.994)" fill="#b5e448"/>
  <path id="Path_1346" data-name="Path 1346" d="M264.789,851.725h.757l.5-1.01h-1.009Z" transform="translate(-202.471 -650.501)" fill="#b5e448"/>
  <path id="Path_1347" data-name="Path 1347" d="M267.437,867l1.514-1.01-1.009-.252-1.009.757Z" transform="translate(-204.11 -661.985)" fill="#b5e448"/>
  <path id="Path_1348" data-name="Path 1348" d="M1305.657,111.507l.252-1.01h-.756l-.5,1.01.5.253Z" transform="translate(-997.603 -84.492)" fill="#b5e448"/>
  <path id="Path_1349" data-name="Path 1349" d="M727.9,324.486v.5l.5.252.5-.252.505-1.01h-.757Z" transform="translate(-556.589 -247.733)" fill="#b5e448"/>
  <path id="Path_1350" data-name="Path 1350" d="M820.093,1784.788l1.009.252.5-.252v-.758h-.757Z" transform="translate(-627.085 -1364.161)" fill="#b5e448"/>
  <path id="Path_1351" data-name="Path 1351" d="M1972.51,175.62l.758.5.5-.5-.252-.757h-.758Z" transform="translate(-1508.283 -133.709)" fill="#b5e448"/>
  <path id="Path_1352" data-name="Path 1352" d="M750.348,316.407l1.009-.5V315.4h-.5l-1.514.757Z" transform="translate(-572.982 -241.169)" fill="#b5e448"/>
  <path id="Path_1353" data-name="Path 1353" d="M185.082,872.17l-1.009.253-.757.758h1.261Z" transform="translate(-140.173 -666.906)" fill="#b5e448"/>
  <path id="Path_1354" data-name="Path 1354" d="M1774.19,1424.338l.755.252.758-.252.252-.758h-.756Z" transform="translate(-1356.637 -1088.542)" fill="#b5e448"/>
  <path id="Path_1355" data-name="Path 1355" d="M1192.775,1622.04h-1.513l-.252.506,1.01.252.755-.252Z" transform="translate(-910.708 -1240.295)" fill="#b5e448"/>
  <path id="Path_1356" data-name="Path 1356" d="M1299.471,171.33v-.505l-1.01-.252-.252.757.758.252Z" transform="translate(-992.678 -130.429)" fill="#b5e448"/>
  <path id="Path_1357" data-name="Path 1357" d="M749.529,306.814h-1.01l-.252,1.01h.757Z" transform="translate(-572.164 -234.606)" fill="#b5e448"/>
  <path id="Path_1358" data-name="Path 1358" d="M280.554,661.843l.5-1.01h-1.009l-.252.757Z" transform="translate(-213.947 -505.307)" fill="#b5e448"/>
  <path id="Path_1359" data-name="Path 1359" d="M264.789,676.863H265.8l.5-1.01-1.513.5Z" transform="translate(-202.471 -516.792)" fill="#b5e448"/>
  <path id="Path_1360" data-name="Path 1360" d="M1904.97,920.95v.505h.758l.5-.253.254-.757h-.758Z" transform="translate(-1456.638 -703.82)" fill="#b5e448"/>
  <path id="Path_1361" data-name="Path 1361" d="M277.591,1253.262l-1.009-.252v1.01h1.009Z" transform="translate(-211.489 -958.116)" fill="#b5e448"/>
  <path id="Path_1362" data-name="Path 1362" d="M215.918,1622.546v-.506h-1.261l-.252.758h1.009Z" transform="translate(-163.944 -1240.295)" fill="#b5e448"/>
  <path id="Path_1363" data-name="Path 1363" d="M1145.99,1646.154l1.007.251.758-.251.5-.5h-1.513Z" transform="translate(-876.283 -1258.349)" fill="#b5e448"/>
  <path id="Path_1364" data-name="Path 1364" d="M1358.683,118h-1.007l-.506.758h1.261Z" transform="translate(-1037.762 -90.233)" fill="#b5e448"/>
  <path id="Path_1365" data-name="Path 1365" d="M162.064,722.424l-.505-1.514H160.8l.5,1.514Z" transform="translate(-122.958 -551.245)" fill="#b5e448"/>
  <path id="Path_1366" data-name="Path 1366" d="M556.313,387.275h-.757l-.252.757.757.252Z" transform="translate(-424.614 -296.13)" fill="#b5e448"/>
  <path id="Path_1367" data-name="Path 1367" d="M284.084,670.425h.757l.252-.758-.757-.252Z" transform="translate(-217.225 -511.869)" fill="#b5e448"/>
  <path id="Path_1368" data-name="Path 1368" d="M297.138,680.143h-1.009l-.252.757h1.009Z" transform="translate(-226.243 -520.072)" fill="#b5e448"/>
  <path id="Path_1369" data-name="Path 1369" d="M512.613,401.219H511.6l-.252.505,1.01.252Z" transform="translate(-391.005 -306.793)" fill="#b5e448"/>
  <path id="Path_1370" data-name="Path 1370" d="M357.172,490.261l-1.261.5v.5l.5.253Z" transform="translate(-272.148 -374.879)" fill="#b5e448"/>
  <path id="Path_1371" data-name="Path 1371" d="M392.3,536.643l-1.009-.252v.757l.757.253Z" transform="translate(-299.198 -410.152)" fill="#b5e448"/>
  <path id="Path_1372" data-name="Path 1372" d="M1383.97,1570.49h.506l.5-.252v-.506l-.755-.252Z" transform="translate(-1058.255 -1200.105)" fill="#b5e448"/>
  <path id="Path_1373" data-name="Path 1373" d="M1814.041,20.382h-.5l-.758.757h1.261Z" transform="translate(-1386.145 -15.585)" fill="#b5e448"/>
  <path id="Path_1374" data-name="Path 1374" d="M414.24,1242.28h-1.514v.506h1.261Z" transform="translate(-315.592 -949.911)" fill="#b5e448"/>
  <path id="Path_1375" data-name="Path 1375" d="M1783.84,1443.648h1.007l.506-.758-1.513.252Z" transform="translate(-1364.016 -1103.308)" fill="#b5e448"/>
  <path id="Path_1376" data-name="Path 1376" d="M1453.589,1524.42h-1.01v.758h.758Z" transform="translate(-1110.717 -1165.65)" fill="#b5e448"/>
  <path id="Path_1377" data-name="Path 1377" d="M265.86,665.629l.252.505.757-.252.252-.757Z" transform="translate(-203.29 -508.588)" fill="#b5e448"/>
  <path id="Path_1378" data-name="Path 1378" d="M1652.735,37.8l-.5-.252-.252,1.01h.5Z" transform="translate(-1263.189 -28.71)" fill="#b5e448"/>
  <path id="Path_1379" data-name="Path 1379" d="M1983.988,83.676h-.758v.757h.758Z" transform="translate(-1516.48 -63.983)" fill="#b5e448"/>
  <path id="Path_1380" data-name="Path 1380" d="M749.276,290.155l-.252-.5-.757.758.757.253Z" transform="translate(-572.164 -221.481)" fill="#b5e448"/>
  <path id="Path_1381" data-name="Path 1381" d="M739.692,333.319h.5l.5-.253v-.5h-.757Z" transform="translate(-565.607 -254.294)" fill="#b5e448"/>
  <path id="Path_1382" data-name="Path 1382" d="M475.66,495.624h-.5l-.252,1.01h.5Z" transform="translate(-363.135 -378.98)" fill="#b5e448"/>
  <path id="Path_1383" data-name="Path 1383" d="M800.734,228.754l-.757-.253-.252.506.757.253Z" transform="translate(-611.511 -174.724)" fill="#b5e448"/>
  <path id="Path_1384" data-name="Path 1384" d="M802.941,294.448l.757.253.252-.505-.757-.252Z" transform="translate(-613.97 -224.764)" fill="#b5e448"/>
  <path id="Path_1385" data-name="Path 1385" d="M244.356,660.833l-1.009.505.757.252Z" transform="translate(-186.076 -505.307)" fill="#b5e448"/>
  <path id="Path_1386" data-name="Path 1386" d="M325.579,1480.44h-.5l-.252.758h.757Z" transform="translate(-248.376 -1132.021)" fill="#b5e448"/>
  <path id="Path_1387" data-name="Path 1387" d="M173.6,1588.476l-.757-.756-.252.756Z" transform="translate(-131.975 -1214.052)" fill="#b5e448"/>
  <path id="Path_1388" data-name="Path 1388" d="M1066.6,1679.97h-1.007v.506h1.007Z" transform="translate(-814.805 -1284.592)" fill="#b5e448"/>
  <path id="Path_1389" data-name="Path 1389" d="M1944.64,183.951l.756.252v-.5l-.756-.253Z" transform="translate(-1486.972 -140.272)" fill="#b5e448"/>
  <path id="Path_1390" data-name="Path 1390" d="M769.708,323.664l.757-.5-.757-.253Z" transform="translate(-588.558 -246.911)" fill="#b5e448"/>
  <path id="Path_1391" data-name="Path 1391" d="M1887.508,835.948,1887,835.7l-.252.757h.758Z" transform="translate(-1442.706 -639.016)" fill="#b5e448"/>
  <path id="Path_1392" data-name="Path 1392" d="M1424.649,98.7l-1.01.252.755.253Z" transform="translate(-1088.589 -75.468)" fill="#b5e448"/>
  <path id="Path_1393" data-name="Path 1393" d="M691.136,296.088h-.757v.5h.757Z" transform="translate(-527.899 -226.404)" fill="#b5e448"/>
  <path id="Path_1394" data-name="Path 1394" d="M751.989,329.028l.252-.757-.757.253Z" transform="translate(-574.623 -251.013)" fill="#b5e448"/>
  <path id="Path_1395" data-name="Path 1395" d="M581.79,378.124l-.5-.5-.252.757h.5Z" transform="translate(-444.288 -288.747)" fill="#b5e448"/>
  <path id="Path_1396" data-name="Path 1396" d="M449.931,517.081l-.757.253,1.01.252Z" transform="translate(-343.462 -395.387)" fill="#b5e448"/>
  <path id="Path_1397" data-name="Path 1397" d="M231.241,666.2l-.757.253v.5h.5Z" transform="translate(-176.24 -509.408)" fill="#b5e448"/>
  <path id="Path_1398" data-name="Path 1398" d="M306.029,703.177l.757-.505-1.262.253Z" transform="translate(-233.619 -537.299)" fill="#b5e448"/>
  <path id="Path_1399" data-name="Path 1399" d="M1861.778,1116.77h-.758v.5h.758Z" transform="translate(-1423.032 -853.94)" fill="#b5e448"/>
  <path id="Path_1400" data-name="Path 1400" d="M207.656,1499.75H206.9v.5h.757Z" transform="translate(-158.206 -1146.786)" fill="#b5e448"/>
  <path id="Path_1401" data-name="Path 1401" d="M483.165,414.345l-.757-.252v.5h.5Z" transform="translate(-368.874 -316.637)" fill="#b5e448"/>
  <path id="Path_1402" data-name="Path 1402" d="M154.056,670.992v-.505l-.757.253Z" transform="translate(-117.22 -512.689)" fill="#b5e448"/>
  <path id="Path_1403" data-name="Path 1403" d="M1812.466,812.347l-.756-.253v.505h.5Z" transform="translate(-1385.327 -620.969)" fill="#b5e448"/>
  <path id="Path_1404" data-name="Path 1404" d="M1852.946,1360.794l.252-.252-.758-.252v.5Z" transform="translate(-1416.471 -1040.148)" fill="#b5e448"/>
  <path id="Path_1405" data-name="Path 1405" d="M190.5,1456.84l-.757.252.757.252Z" transform="translate(-145.09 -1113.975)" fill="#b5e448"/>
  <path id="Path_1406" data-name="Path 1406" d="M1211.38,1669.754h.5l.252-.252-.755-.252Z" transform="translate(-926.284 -1276.395)" fill="#b5e448"/>
  <path id="Path_1407" data-name="Path 1407" d="M1959.076,187.737h-.506v.5h.506Z" transform="translate(-1497.624 -143.553)" fill="#b5e448"/>
  <path id="Path_1408" data-name="Path 1408" d="M555.809,285.359h-.5v.505h.5Z" transform="translate(-424.614 -218.2)" fill="#b5e448"/>
  <path id="Path_1409" data-name="Path 1409" d="M1862.6,856.079h-.506v.5h.506Z" transform="translate(-1423.85 -654.602)" fill="#b5e448"/>
  <path id="Path_1410" data-name="Path 1410" d="M1797.458,889.334h-.758l.5.253Z" transform="translate(-1373.849 -680.031)" fill="#b5e448"/>
  <path id="Path_1411" data-name="Path 1411" d="M1726.454,941.9h-.5v.505h.5Z" transform="translate(-1319.75 -720.227)" fill="#b5e448"/>
  <path id="Path_1412" data-name="Path 1412" d="M1768.264,1430.272l.252-.252h-.756Z" transform="translate(-1351.72 -1093.467)" fill="#b5e448"/>
  <path id="Path_1413" data-name="Path 1413" d="M1210.813,1663.88h-.5v.506h.5Z" transform="translate(-925.465 -1272.288)" fill="#b5e448"/>
  <path id="Path_1414" data-name="Path 1414" d="M1842.234,69.162v-.5l-.5.252Z" transform="translate(-1408.282 -52.499)" fill="#b5e448"/>
  <path id="Path_1415" data-name="Path 1415" d="M1324.443,129.806l-.5.253.5.252Z" transform="translate(-1012.353 -99.256)" fill="#b5e448"/>
  <path id="Path_1416" data-name="Path 1416" d="M1236.536,178.081l-.506.253.506.252Z" transform="translate(-945.132 -136.17)" fill="#b5e448"/>
  <path id="Path_1417" data-name="Path 1417" d="M244.924,799.728l-.252-.5-.253.5Z" transform="translate(-186.895 -611.127)" fill="#b5e448"/>
  <path id="Path_1418" data-name="Path 1418" d="M256.211,856.079l.252.5.252-.253Z" transform="translate(-195.912 -654.602)" fill="#b5e448"/>
  <path id="Path_1419" data-name="Path 1419" d="M131.29,1669.754v-.5l-.5.252Z" transform="translate(-100.005 -1276.395)" fill="#b5e448"/>
</svg>
